<svg xmlns="http://www.w3.org/2000/svg" xmlns:graphite="https://graphite.art" viewBox="0 0 1024 1024" width="1024" height="1024"><defs><clipPath id="artboard-13629495265764190973"><rect x="0" y="0" width="1024" height="1024" /></clipPath></defs><g>
<rect fill="#ffffff" fill-opacity="0" x="0" y="0" width="1024" height="1024"/>
<g clip-path="url(#artboard-13629495265764190973)">
	<g>
		<g transform="matrix(2.5,0,0,2.5,183.411104606,80.476561537)">
			<path d="M131.43555815753754,233.1600732735358 C170.53079560537836,233.1600732735358 202.28788867162467,247.24660562944953 202.28788867162467,264.5881276044719 C202.28788867162467,281.92964957949425 170.53079560537836,296.016181935408 131.43555815753754,296.016181935408 C92.34032070969673,296.016181935408 60.583227643450414,281.92964957949425 60.583227643450414,264.5881276044719 C60.583227643450414,247.24660562944953 92.34032070969673,233.1600732735358 131.43555815753754,233.1600732735358 Z" transform="matrix(1,0,0,1,0,0)" fill="#37422f" stroke-width="2" stroke="#37422f"/>
		</g>
		<g transform="matrix(2.5,0,0,2.5,183.411104606,80.476561537)">
			<g transform="matrix(1,0,0,1,-35.175295311,-128.950758728)">
				<path d="M148.41673006824752,195.79124657502638 L225.46988593730762,207.6421500742068 L183.89338055746344,243.71860663606105 L101.7483068634755,224.78872645673243 L148.41673006824752,195.79124657502638 Z" transform="matrix(1,0,0,1,0,0)" fill="#969696" stroke-width="2" stroke-linecap="round" stroke-linejoin="round" stroke="#000000"/>
			</g>
			<g transform="matrix(1,0,0,1,-35.175295311,-128.950758728)">
				<path d="M101.74830686347546,224.79486424476715 L183.89338055746336,243.7247444240958 L183.79016199159489,418.5778032978953 L101.74830686347542,393.53888633210863 L101.74830686347546,224.79486424476715 Z" fill="#969696" stroke-width="2" stroke-linecap="round" stroke-linejoin="round" stroke="#000000"/>
			</g>
			<g transform="matrix(1,0,0,1,-35.175295311,-128.950758728)">
				<path d="M183.77891145430502,243.71860663606105 L225.4698859373076,207.6421500742068 L225.46988593730762,380.85902949100813 L183.79016199159489,418.5778032978953 L183.77891145430502,243.71860663606105 Z" transform="matrix(1,0,0,1,0,0)" fill="#969696" stroke-width="2" stroke-linecap="round" stroke-linejoin="round" stroke="#000000"/>
			</g>
		</g>
		<g transform="matrix(2.5,0,0,2.5,183.411104606,80.476561537)">
			<g transform="matrix(1,0,0,1,-35.175295311,-128.950758728)">
				<path d="M101.7483068634755,297.580999974385 L183.77891152673686,317.172042878415" fill="none" stroke-width="2" stroke-linecap="round" stroke-linejoin="round" stroke="#000000"/>
			</g>
			<g transform="matrix(1,0,0,1,-35.175295311,-128.950758728)">
				<path d="M101.74615659949735,317.172042878415 L183.7789115267369,338.11031489759057" fill="none" stroke-width="2" stroke-linecap="round" stroke-linejoin="round" stroke="#000000"/>
			</g>
			<g transform="matrix(1,0,0,1,-35.175295311,-128.950758728)">
				<path d="M101.74846580174142,336.2332259459221 L183.78343666992845,357.95929852874895" fill="none" stroke-width="2" stroke-linecap="round" stroke-linejoin="round" stroke="#000000"/>
			</g>
			<g transform="matrix(1,0,0,1,-35.175295311,-128.950758728)">
				<path d="M101.763453808974,356.2285315298722 L183.80056574636345,379.7843256901197" fill="none" stroke-width="2" stroke-linecap="round" stroke-linejoin="round" stroke="#000000"/>
			</g>
			<g transform="matrix(1,0,0,1,-35.175295311,-128.950758728)">
				<path d="M101.7483068634754,375.82518206324903 L183.81571269186185,398.6558686881844" fill="none" stroke-width="2" stroke-linecap="round" stroke-linejoin="round" stroke="#000000"/>
			</g>
			<g transform="matrix(1,0,0,1,-35.175295311,-128.950758728)">
				<path d="M101.74830686347549,279.3844660419806 L183.945345366882,297.58099997438507" fill="none" stroke-width="2" stroke-linecap="round" stroke-linejoin="round" stroke="#000000"/>
			</g>
			<g transform="matrix(1,0,0,1,-35.175295311,-128.950758728)">
				<path d="M101.74830686347546,261.18793210957614 L183.77891145430502,279.52741785902174" fill="none" stroke-width="2" stroke-linecap="round" stroke-linejoin="round" stroke="#000000"/>
			</g>
			<g transform="matrix(1,0,0,1,-35.175295311,-128.950758728)">
				<path d="M101.74830686347546,242.99139817717167 L183.77891145430502,261.6230122475414" fill="none" stroke-width="2" stroke-linecap="round" stroke-linejoin="round" stroke="#000000"/>
			</g>
		</g>
		<g transform="matrix(2.5,0,0,2.5,183.411104606,80.476561537)">
			<g transform="matrix(1,0,0,1,-35.175295311,-128.950758728)">
				<path d="M131.55798399695783,286.2539420914323 L131.55798399695783,304.70032654859085" fill="none" stroke-width="2" stroke-linecap="round" stroke-linejoin="round" stroke="#000000"/>
			</g>
			<g transform="matrix(1,0,0,1,-35.175295311,-128.950758728)">
				<path d="M161.20722153338158,293.0864457186587 L161.20722153338158,311.7813359722359" fill="none" stroke-width="2" stroke-linecap="round" stroke-linejoin="round" stroke="#000000"/>
			</g>
			<g transform="matrix(1,0,0,1,-35.175295311,-128.950758728)">
				<path d="M195.6354951627866,288.1255657157543 L195.6354951627866,306.9882999040084" fill="none" stroke-width="2" stroke-linecap="round" stroke-linejoin="round" stroke="#000000"/>
			</g>
			<g transform="matrix(1,0,0,1,-35.175295311,-128.950758728)">
				<path d="M215.00267589148356,271.3204194462187 L215.00267589148356,290.35362711847256" fill="none" stroke-width="2" stroke-linecap="round" stroke-linejoin="round" stroke="#000000"/>
			</g>
			<g transform="matrix(1,0,0,1,-35.175295311,-128.950758728)">
				<path d="M110.58852866140272,281.42164650659197 L110.58852866140272,299.6922749702878" fill="none" stroke-width="2" stroke-linecap="round" stroke-linejoin="round" stroke="#000000"/>
			</g>
			<g transform="matrix(1,0,0,1,-35.175295311,-128.950758728)">
				<path d="M126.00501300804146,303.37413258311574 L126.00501300804146,323.3639418924947" fill="none" stroke-width="2" stroke-linecap="round" stroke-linejoin="round" stroke="#000000"/>
			</g>
			<g transform="matrix(1,0,0,1,-35.175295311,-128.950758728)">
				<path d="M155.93336642815322,310.52180214263296 L155.93336642815322,331.00293933384773" fill="none" stroke-width="2" stroke-linecap="round" stroke-linejoin="round" stroke="#000000"/>
			</g>
			<g transform="matrix(1,0,0,1,-35.175295311,-128.950758728)">
				<path d="M212.00988968332263,292.9241622927561 L212.00988968332263,312.3864284089108" fill="none" stroke-width="2" stroke-linecap="round" stroke-linejoin="round" stroke="#000000"/>
			</g>
			<g transform="matrix(1,0,0,1,-35.175295311,-128.950758728)">
				<path d="M196.5298292246986,326.4917603554998 L196.5298292246986,346.4966095726927" fill="none" stroke-width="2" stroke-linecap="round" stroke-linejoin="round" stroke="#000000"/>
			</g>
			<g transform="matrix(1,0,0,1,-35.175295311,-128.950758728)">
				<path d="M163.3668549296074,332.9002839303192 L163.3668549296074,352.5521882184868" fill="none" stroke-width="2" stroke-linecap="round" stroke-linejoin="round" stroke="#000000"/>
			</g>
			<g transform="matrix(1,0,0,1,-35.175295311,-128.950758728)">
				<path d="M132.47639565231876,325.0157158730984 L132.47639565231876,344.37118500397236" fill="none" stroke-width="2" stroke-linecap="round" stroke-linejoin="round" stroke="#000000"/>
			</g>
			<g transform="matrix(1,0,0,1,-35.175295311,-128.950758728)">
				<path d="M117.25820248150802,340.3408115436128 L117.25820248150802,360.6776290380042" fill="none" stroke-width="2" stroke-linecap="round" stroke-linejoin="round" stroke="#000000"/>
			</g>
			<g transform="matrix(1,0,0,1,-35.175295311,-128.950758728)">
				<path d="M139.00067425262714,346.09906945277214 L139.00067425262714,366.92067169857904" fill="none" stroke-width="2" stroke-linecap="round" stroke-linejoin="round" stroke="#000000"/>
			</g>
			<g transform="matrix(1,0,0,1,-35.175295311,-128.950758728)">
				<path d="M171.87875242089274,354.80647198010826 L171.87875242089274,376.36114593549837" fill="none" stroke-width="2" stroke-linecap="round" stroke-linejoin="round" stroke="#000000"/>
			</g>
			<g transform="matrix(1,0,0,1,-35.175295311,-128.950758728)">
				<path d="M190.3908394387187,311.49298920622493 L190.3908394387187,332.0855685308241" fill="none" stroke-width="2" stroke-linecap="round" stroke-linejoin="round" stroke="#000000"/>
			</g>
			<g transform="matrix(1,0,0,1,-35.175295311,-128.950758728)">
				<path d="M202.0945351860097,341.4923314373429 L202.0945351860097,362.83649456117405" fill="none" stroke-width="2" stroke-linecap="round" stroke-linejoin="round" stroke="#000000"/>
			</g>
			<g transform="matrix(1,0,0,1,-35.175295311,-128.950758728)">
				<path d="M219.07850650861772,326.2188350599872 L219.07850650861772,347.1022670156415" fill="none" stroke-width="2" stroke-linecap="round" stroke-linejoin="round" stroke="#000000"/>
			</g>
			<g transform="matrix(1,0,0,1,-35.175295311,-128.950758728)">
				<path d="M212.768013807196,352.94841019396995 L212.768013807196,372.710794258373" fill="none" stroke-width="2" stroke-linecap="round" stroke-linejoin="round" stroke="#000000"/>
			</g>
			<g transform="matrix(1,0,0,1,-35.175295311,-128.950758728)">
				<path d="M194.2786730128871,370.07723652667255 L194.2786730128871,389.2796784087392" fill="none" stroke-width="2" stroke-linecap="round" stroke-linejoin="round" stroke="#000000"/>
			</g>
			<g transform="matrix(1,0,0,1,-35.175295311,-128.950758728)">
				<path d="M164.0123170661533,374.1024104971694 L164.0123170661533,393.14667639586776" fill="none" stroke-width="2" stroke-linecap="round" stroke-linejoin="round" stroke="#000000"/>
			</g>
			<g transform="matrix(1,0,0,1,-35.175295311,-128.950758728)">
				<path d="M132.47930216521922,365.0481521168242 L132.47930216521922,384.3743705787679" fill="none" stroke-width="2" stroke-linecap="round" stroke-linejoin="round" stroke="#000000"/>
			</g>
			<g transform="matrix(1,0,0,1,-35.175295311,-128.950758728)">
				<path d="M124.94196628411508,382.2775265058821 L124.9419662841151,400.61751847004876" fill="none" stroke-width="2" stroke-linecap="round" stroke-linejoin="round" stroke="#000000"/>
			</g>
			<g transform="matrix(1,0,0,1,-35.175295311,-128.950758728)">
				<path d="M154.03422049867004,390.37082654968253 L154.03422049867004,409.4963832456958" fill="none" stroke-width="2" stroke-linecap="round" stroke-linejoin="round" stroke="#000000"/>
			</g>
			<g transform="matrix(1,0,0,1,-35.175295311,-128.950758728)">
				<path d="M204.6427993145847,379.992056425729 L204.6427993145847,399.7068551244535" fill="none" stroke-width="2" stroke-linecap="round" stroke-linejoin="round" stroke="#000000"/>
			</g>
		</g>
		<g transform="matrix(2.5,0,0,2.5,183.411104606,80.476561537)">
			<g transform="matrix(1,0,0,1,-35.175295311,-128.950758728)">
				<path d="M183.77891145430505,317.1720428611164 L225.4698859373076,281.3632316381557" fill="none" stroke-width="2" stroke-linecap="round" stroke-linejoin="round" stroke="#000000"/>
			</g>
			<g transform="matrix(1,0,0,1,-35.175295311,-128.950758728)">
				<path d="M183.7789115267369,338.1103148975906 L225.46773567332949,300.1237253346882" fill="none" stroke-width="2" stroke-linecap="round" stroke-linejoin="round" stroke="#000000"/>
			</g>
			<g transform="matrix(1,0,0,1,-35.175295311,-128.950758728)">
				<path d="M225.4698859373076,320.47113867637074 L183.78343666992845,357.95929852874895" fill="none" stroke-width="2" stroke-linecap="round" stroke-linejoin="round" stroke="#000000"/>
			</g>
			<g transform="matrix(1,0,0,1,-35.175295311,-128.950758728)">
				<path d="M225.48503288280608,341.167156679359 L183.80056574636333,379.7843256901196" fill="none" stroke-width="2" stroke-linecap="round" stroke-linejoin="round" stroke="#000000"/>
			</g>
			<g transform="matrix(1,0,0,1,-35.175295311,-128.950758728)">
				<path d="M225.46988593730757,361.3282441632738 L183.8157126918618,398.6558686881843" fill="none" stroke-width="2" stroke-linecap="round" stroke-linejoin="round" stroke="#000000"/>
			</g>
			<g transform="matrix(1,0,0,1,-35.175295311,-128.950758728)">
				<path d="M183.77891152673686,297.580999974385 L225.4698859373076,261.6230122475414" fill="none" stroke-width="2" stroke-linecap="round" stroke-linejoin="round" stroke="#000000"/>
			</g>
			<g transform="matrix(1,0,0,1,-35.175295311,-128.950758728)">
				<path d="M183.77891145430505,279.52741785902174 L225.4698859373076,243.71860663606105" fill="none" stroke-width="2" stroke-linecap="round" stroke-linejoin="round" stroke="#000000"/>
			</g>
			<g transform="matrix(1,0,0,1,-35.175295311,-128.950758728)">
				<path d="M183.77891145430505,261.6230122475414 L225.4698859373076,225.87728640343644" fill="none" stroke-width="2" stroke-linecap="round" stroke-linejoin="round" stroke="#000000"/>
			</g>
		</g>
		<g transform="matrix(2.5,0,0,2.5,183.411104606,80.476561537)">
			<path d="M88.20026923595951,100.82798803309424 L88.20026923595951,118.95283923849476" fill="none" stroke-width="2" stroke-linecap="round" stroke-linejoin="round" stroke="#000000"/>
		</g>
		<g transform="matrix(2.5,0,0,2.5,183.411104606,80.476561537)">
			<path d="M118.8442322741464,107.88358289008247 L118.91558678649544,125.9292103807649" fill="none" stroke-width="2" stroke-linecap="round" stroke-linejoin="round" stroke="#000000"/>
		</g>
		<g transform="matrix(2.5,0,0,2.5,183.411104606,80.476561537)">
			<path d="M135.48192372925288,129.69192306607007 L135.48192372925288,147.64305779763575" fill="none" stroke-width="2" stroke-linecap="round" stroke-linejoin="round" stroke="#000000"/>
		</g>
		<g transform="matrix(2.5,0,0,2.5,183.411104606,80.476561537)">
			<path d="M94.21027579449172,120.31789223691533 L94.21027579449172,138.41600402994592" fill="none" stroke-width="2" stroke-linecap="round" stroke-linejoin="round" stroke="#000000"/>
		</g>
		<g transform="matrix(2.5,0,0,2.5,183.411104606,80.476561537)">
			<path d="M82.0819227329179,135.70448240644393 L82.0819227329179,153.86702357108558" fill="none" stroke-width="2" stroke-linecap="round" stroke-linejoin="round" stroke="#000000"/>
		</g>
		<g transform="matrix(2.5,0,0,2.5,183.411104606,80.476561537)">
			<path d="M120.90226549142965,144.38350076013657 L120.90226549142965,162.4609546558843" fill="none" stroke-width="2" stroke-linecap="round" stroke-linejoin="round" stroke="#000000"/>
		</g>
		<g transform="matrix(2.5,0,0,2.5,183.411104606,80.476561537)">
			<path d="M169.44910338479505,132.6722535199046 L169.44910338479505,150.57665913138493" fill="none" stroke-width="2" stroke-linecap="round" stroke-linejoin="round" stroke="#000000"/>
		</g>
		<g transform="matrix(2.5,0,0,2.5,183.411104606,80.476561537)">
			<path d="M163.83059315173412,119.6166856823116 L163.83059315173412,137.49805034487395" fill="none" stroke-width="2" stroke-linecap="round" stroke-linejoin="round" stroke="#000000"/>
		</g>
		<g transform="matrix(2.5,0,0,2.5,183.411104606,80.476561537)">
			<path d="M178.5524760209732,88.88017185212499 L178.5524760209732,106.99418415821327" fill="none" stroke-width="2" stroke-linecap="round" stroke-linejoin="round" stroke="#000000"/>
		</g>
		<g transform="matrix(2.5,0,0,2.5,183.411104606,80.476561537)">
			<path d="M165.4298915104599,100.26680345446022 L165.4298915104599,118.24545170702407" fill="none" stroke-width="2" stroke-linecap="round" stroke-linejoin="round" stroke="#000000"/>
		</g>
		<g transform="matrix(2.5,0,0,2.5,183.411104606,80.476561537)">
			<path d="M88.20026923595954,100.82798803309424 L134.74709095584694,70.1480935310476" fill="none" stroke-width="2" stroke-linecap="round" stroke-linejoin="round" stroke="#000000"/>
		</g>
		<g transform="matrix(2.5,0,0,2.5,183.411104606,80.476561537)">
			<path d="M118.84423227414638,107.8835828900825 L162.37787106826772,74.39775345770681" fill="none" stroke-width="2" stroke-linecap="round" stroke-linejoin="round" stroke="#000000"/>
		</g>
		<g transform="matrix(2.5,0,0,2.5,183.411104606,80.476561537)">
			<path d="M178.5524760209732,88.88017185212499 L150.59317900407788,83.4624721282679" fill="none" stroke-width="2" stroke-linecap="round" stroke-linejoin="round" stroke="#000000"/>
		</g>
		<g transform="matrix(2.5,0,0,2.5,183.411104606,80.476561537)">
			<path d="M165.4298915104599,100.26680345446022 L136.08954937794385,94.61858223677223" fill="none" stroke-width="2" stroke-linecap="round" stroke-linejoin="round" stroke="#000000"/>
		</g>
		<g transform="matrix(2.5,0,0,2.5,183.411104606,80.476561537)">
			<path d="M129.4895673855213,99.69525116169694 L99.52787467794776,93.36174808201027" fill="none" stroke-width="2" stroke-linecap="round" stroke-linejoin="round" stroke="#000000"/>
		</g>
		<g transform="matrix(2.5,0,0,2.5,183.411104606,80.476561537)">
			<path d="M144.97470468898865,86.79924127236318 L117.12839164078015,81.76091297342381" fill="none" stroke-width="2" stroke-linecap="round" stroke-linejoin="round" stroke="#000000"/>
		</g>
		<g transform="matrix(2.5,0,0,2.5,183.411104606,80.476561537)">
			<path d="M111.47368009590323,85.48804078207091 L89.90722315485024,81.33922778824265" fill="none" stroke-width="2" stroke-linecap="round" stroke-linejoin="round" stroke="#000000"/>
		</g>
		<g transform="matrix(2.5,0,0,2.5,183.411104606,80.476561537)">
			<path d="M130.83423538437123,69.5462898377298 L172.32555388651937,75.9277236164877 L130.2514876250107,110.51232211029784 L84.49411454390648,99.97392507969093 L130.83423538437123,69.5462898377298 Z" fill="#055dab" stroke-width="2" stroke-linecap="round" stroke-linejoin="round" stroke="#000000"/>
		</g>
		<g transform="matrix(2.5,0,0,2.5,183.411104606,80.476561537)">
			<path d="M84.49411454390649,99.9739250796909 L130.25148762501072,110.51232211029782 L131.1372046889887,224.59392166492674 C131.1372046889887,224.59392166492674 107.57470468898872,198.79924127236322 107.57470468898872,198.79924127236322 C107.57470468898872,198.79924127236322 85.19970468898873,211.79924127236322 85.19970468898873,211.79924127236322 L84.49411454390649,99.9739250796909 Z" fill="#055dab" stroke-width="2" stroke-linecap="round" stroke-linejoin="round" stroke="#000000"/>
		</g>
		<g transform="matrix(2.5,0,0,2.5,183.411104606,80.476561537)">
			<g transform="matrix(1,0,0,1,-136.675295311,-126.44462094)">
				<path d="M217.3,207.9 L203.3,205.09375 L203.24830686347556,222.2887264567325 L217.20655180757115,225.50532719032933 L217.3,207.9 Z" fill="#969696" stroke-width="2" stroke-linecap="round" stroke-linejoin="round" stroke="#000000"/>
			</g>
			<g transform="matrix(1,0,0,1,-136.675295311,-126.44462094)">
				<path d="M214.16,199.2 L228.09999999999997,201.89999999999992 L217.3,207.89999999999998 L203.30000000000004,205.09374999999997 L214.16,199.2 Z" fill="#969696" stroke-width="2" stroke-linecap="round" stroke-linejoin="round" stroke="#000000"/>
			</g>
			<g transform="matrix(1,0,0,1,-136.675295311,-126.44462094)">
				<path d="M217.29999999999998,207.89999999999998 L228.09999999999994,201.89999999999995 L228.09999999999994,218.4347086168832 L217.2065518075711,225.5053271903293 L217.29999999999998,207.89999999999998 Z" fill="#969696" stroke-width="2" stroke-linecap="round" stroke-linejoin="round" stroke="#000000"/>
			</g>
		</g>
		<g transform="matrix(2.5,0,0,2.5,183.411104606,80.476561537)">
			<g transform="matrix(1,0,0,1,-136.675295311,-126.450758728)">
				<path d="M318.70482407507416,196.38917589262653 L305.03999999999985,194.23999999999995 L305.0399999999999,209.6 L318.778260872874,212.23061009397742 L318.70482407507416,196.38917589262653 Z" fill="#969696" stroke-width="2" stroke-linecap="round" stroke-linejoin="round" stroke="#000000"/>
			</g>
			<g transform="matrix(1,0,0,1,-136.675295311,-126.450758728)">
				<path d="M313.5999999999999,189.44 L326.96988593730765,191.362492481664 L318.70482407507416,196.38917589262653 L305.03999999999985,194.23999999999992 L313.5999999999999,189.44 Z" fill="#969696" stroke-width="2" stroke-linecap="round" stroke-linejoin="round" stroke="#000000"/>
			</g>
			<g transform="matrix(1,0,0,1,-136.675295311,-126.450758728)">
				<path d="M318.7048240750742,196.38917589262655 L326.9698859373077,191.362492481664 C326.9698859373077,191.362492481664 326.96988593730765,205.14215007420677 326.96988593730765,205.14215007420677 L318.778260872874,212.23061009397742 L318.7048240750742,196.38917589262655 Z" fill="#969696" stroke-width="2" stroke-linecap="round" stroke-linejoin="round" stroke="#000000"/>
			</g>
		</g>
		<g transform="matrix(2.5,0,0,2.5,183.411104606,80.476561537)">
			<g transform="matrix(1,0,0,1,-47.752778187,-132.21584366)">
				<path d="M216.1174828758344,208.5490849319711 L208.5090040528319,214.45153150388157 L222.08270832809302,216.98677566350625 L229.82241032720725,210.8051690329915 C229.82241032720725,210.8051690329915 216.1174828758344,208.5490849319711 216.1174828758344,208.5490849319711 Z" fill="#74592e" stroke-width="2" stroke-linecap="round" stroke-linejoin="round" stroke="#000000"/>
			</g>
			<g transform="matrix(1,0,0,1,-47.752778187,-132.21584366)">
				<g transform="matrix(1,0,0,1,92.144822646,-50.56268009)">
					<path d="M131.8514905408353,268.29459358734044 L131.78326911710002,238.30652924179367" transform="matrix(1,0,0,1,0,0)" fill="none" stroke-width="2" stroke-linecap="round" stroke-linejoin="round" stroke="#000000"/>
				</g>
				<g transform="matrix(1,0,0,1,92.144822646,-50.56268009)">
					<path d="M130.49389370447741,237.45997519435602 C130.83442874612126,238.65187889390003 132.9547657127906,238.59925770951006 133.12956608620703,237.42379305099536 L131.81338509577532,231.98109258517982 C131.81338509577532,231.98109258517982 130.49389370447741,237.45997519435602 130.49389370447741,237.45997519435602 Z" transform="matrix(1,0,0,1,0,0)" fill="#969696" stroke-width="2" stroke-linecap="round" stroke-linejoin="round" stroke="#000000"/>
				</g>
			</g>
			<g transform="matrix(1,0,0,1,-47.752778187,-132.21584366)">
				<g transform="matrix(0.965925826,0.258819045,-0.258819045,0.965925826,162.574915699,-75.509846411)">
					<path d="M131.8514905408353,268.29459358734044 L131.78326911710002,238.30652924179367" transform="matrix(1,0,0,1,0,0)" fill="none" stroke-width="2" stroke-linecap="round" stroke-linejoin="round" stroke="#000000"/>
				</g>
				<g transform="matrix(0.965925826,0.258819045,-0.258819045,0.965925826,162.574915699,-75.509846411)">
					<path d="M130.49389370447741,237.45997519435602 C130.83442874612126,238.65187889390003 132.9547657127906,238.59925770951006 133.12956608620703,237.42379305099536 L131.81338509577532,231.98109258517982 C131.81338509577532,231.98109258517982 130.49389370447741,237.45997519435602 130.49389370447741,237.45997519435602 Z" transform="matrix(1,0,0,1,0,0)" fill="#969696" stroke-width="2" stroke-linecap="round" stroke-linejoin="round" stroke="#000000"/>
				</g>
			</g>
			<g transform="matrix(1,0,0,1,-47.752778187,-132.21584366)">
				<g transform="matrix(1,0,0,1,81.31233617,-47.504244331)">
					<path d="M131.8514905408353,268.29459358734044 L131.78326911710002,238.30652924179367" transform="matrix(1,0,0,1,0,0)" fill="none" stroke-width="2" stroke-linecap="round" stroke-linejoin="round" stroke="#000000"/>
				</g>
				<g transform="matrix(1,0,0,1,81.31233617,-47.504244331)">
					<path d="M130.49389370447741,237.45997519435602 C130.83442874612126,238.65187889390003 132.9547657127906,238.59925770951006 133.12956608620703,237.42379305099536 L131.81338509577532,231.98109258517982 C131.81338509577532,231.98109258517982 130.49389370447741,237.45997519435602 130.49389370447741,237.45997519435602 Z" transform="matrix(1,0,0,1,0,0)" fill="#969696" stroke-width="2" stroke-linecap="round" stroke-linejoin="round" stroke="#000000"/>
				</g>
			</g>
			<g transform="matrix(1,0,0,1,-47.752778187,-132.21584366)">
				<g transform="matrix(1,0,0,1,87.174399638,-46.67874122)">
					<path d="M131.8514905408353,268.29459358734044 L131.78326911710002,238.30652924179367" transform="matrix(1,0,0,1,0,0)" fill="none" stroke-width="2" stroke-linecap="round" stroke-linejoin="round" stroke="#000000"/>
				</g>
				<g transform="matrix(1,0,0,1,87.174399638,-46.67874122)">
					<path d="M130.49389370447741,237.45997519435602 C130.83442874612126,238.65187889390003 132.9547657127906,238.59925770951006 133.12956608620703,237.42379305099536 L131.81338509577532,231.98109258517982 C131.81338509577532,231.98109258517982 130.49389370447741,237.45997519435602 130.49389370447741,237.45997519435602 Z" transform="matrix(1,0,0,1,0,0)" fill="#969696" stroke-width="2" stroke-linecap="round" stroke-linejoin="round" stroke="#000000"/>
				</g>
			</g>
			<g transform="matrix(1,0,0,1,-47.752778187,-132.21584366)">
				<path d="M222.082708328093,216.98677566350625 L208.50900405283187,214.45153150388157 L208.50900405283187,221.8731282466273 L222.11512202500663,224.73184589960726 L222.082708328093,216.98677566350625 Z" fill="#74592e" stroke-width="2" stroke-linecap="round" stroke-linejoin="round" stroke="#000000"/>
			</g>
			<g transform="matrix(1,0,0,1,-47.752778187,-132.21584366)">
				<path d="M222.08270832809296,216.98677566350625 L229.82241032720728,210.8051690329915 L229.85574374870862,217.99569502594846 L222.1151220250066,224.73184589960726 L222.08270832809296,216.98677566350625 Z" fill="#74592e" stroke-width="2" stroke-linecap="round" stroke-linejoin="round" stroke="#000000"/>
			</g>
		</g>
		<g transform="matrix(2.5,0,0,2.5,183.411104606,80.476561537)">
			<g transform="matrix(1,0,0,1,-136.675295311,-126.450758728)">
				<path d="M285.4868287498922,223.61941723376648 L271.4868287498922,220.81316723376648 L271.4351356133678,238.00814369049897 L285.39338055746333,241.2247444240958 L285.4868287498922,223.61941723376648 Z" fill="#969696" stroke-width="2" stroke-linecap="round" stroke-linejoin="round" stroke="#000000"/>
			</g>
			<g transform="matrix(1,0,0,1,-136.675295311,-126.450758728)">
				<path d="M281.65000000000003,213.24999999999997 L295.6323415564329,215.80372878221087 C295.6323415564329,215.80372878221087 285.48682874989225,223.61941723376646 285.48682874989225,223.61941723376646 L271.48682874989225,220.81316723376645 L281.65000000000003,213.24999999999997 Z" fill="#969696" stroke-width="2" stroke-linecap="round" stroke-linejoin="round" stroke="#000000"/>
			</g>
			<g transform="matrix(1,0,0,1,-136.675295311,-126.450758728)">
				<path d="M285.4868287498922,223.61941723376646 L295.63234155643295,215.80372878221084 L295.64465569587975,232.24881577605314 L285.39338055746333,241.22474442409577 L285.4868287498922,223.61941723376646 Z" fill="#969696" stroke-width="2" stroke-linecap="round" stroke-linejoin="round" stroke="#000000"/>
			</g>
		</g>
		<g transform="matrix(2.5,0,0,2.5,183.411104606,80.476561537)">
			<g transform="matrix(1,0,0,1,-136.675295311,-126.450758728)">
				<path d="M249.32000000000008,178.87999999999997 L263.2000000000001,180.76000000000002 C263.2000000000001,180.76000000000002 253.06854173225318,186.089375 253.06854173225318,186.089375 L240.10000000000008,183.8 L249.32000000000008,178.87999999999997 Z" fill="#969696" stroke-width="2" stroke-linecap="round" stroke-linejoin="round" stroke="#000000"/>
			</g>
			<g transform="matrix(1,0,0,1,-136.675295311,-126.450758728)">
				<path d="M253.06854173225315,186.08937500000002 L263.20000000000005,180.76 L263.08499401071384,195.3165474659996 L253.06854173225312,201.89999999999998 L253.06854173225315,186.08937500000002 Z" fill="#969696" stroke-width="2" stroke-linecap="round" stroke-linejoin="round" stroke="#000000"/>
			</g>
			<g transform="matrix(1,0,0,1,-136.675295311,-126.450758728)">
				<path d="M240.10000000000005,183.8 L253.06854173225315,186.08937500000002 L253.06854173225315,201.89999999999995 L240.28225285585614,199.27764037091765 L240.10000000000005,183.8 Z" transform="matrix(1,0,0,1,0,0)" fill="#969696" stroke-width="2" stroke-linecap="round" stroke-linejoin="round" stroke="#000000"/>
			</g>
		</g>
		<g transform="matrix(2.5,0,0,2.5,183.411104606,80.476561537)">
			<path d="M169.45136599260675,210.26445987492303 C179.585823160484,201.1506553412334 183.50535434295173,244.42260785809458 183.50535434295173,258.0523054030088 C183.50535434295173,258.0523054030088 158.82314281884996,280.38889176677475 158.82314281884996,280.38889176677475 C158.82314281884996,266.7591942218605 157.30367413578455,221.1887439569051 169.45136599260675,210.26445987492303 Z" fill="#362407" stroke-width="2" stroke="#000000"/>
		</g>
		<g transform="matrix(2.5,0,0,2.5,183.411104606,80.476561537)">
			<g transform="matrix(0.4,-0.692820323,-0.547232229,-0.652165975,53.849592706,483.791051062)">
				<path d="M306.732602529702,143.23250000000002 C325.1167540985293,157.73250000000002 343.2509056673566,157.73250000000002 361.13505723618397,143.23250000000002 L361.13505723618397,149.73250000000002 C343.2509056673566,164.23250000000002 325.1167540985293,164.23250000000002 306.732602529702,149.73250000000002 L306.732602529702,143.23250000000002 Z" transform="matrix(1,0,0,1,0,0)" fill="#74592e" stroke-width="2.5" stroke-linecap="round" stroke-linejoin="round" stroke="#000000"/>
			</g>
			<g transform="matrix(0.4,-0.692820323,-0.547232229,-0.652165975,53.849592706,483.791051062)">
				<path d="M330.7844435595634,131.4528810064414 L337.08321620632245,131.4528810064414 L337.08321620632245,165.2339197875976 L330.7844435595634,165.2339197875976 L330.7844435595634,131.4528810064414 Z" fill="#74592e" stroke-width="2.5" stroke-linecap="round" stroke-linejoin="round" stroke="#000000"/>
			</g>
			<g transform="matrix(0.4,-0.692820323,-0.547232229,-0.652165975,53.849592706,483.791051062)">
				<path d="M306.7326025297019,143.23250000000002 L330.7844435595634,131.45288100644137" fill="none" stroke-width="2.5" stroke-linecap="round" stroke-linejoin="round" stroke="#000000"/>
			</g>
			<g transform="matrix(0.4,-0.692820323,-0.547232229,-0.652165975,53.849592706,483.791051062)">
				<path d="M361.135057236184,143.23250000000002 L337.08321620632245,131.45288100644137" fill="none" stroke-width="2.5" stroke-linecap="round" stroke-linejoin="round" stroke="#000000"/>
			</g>
			<g transform="matrix(0.4,-0.692820323,-0.547232229,-0.652165975,53.849592706,483.791051062)">
				<path d="M333.933829882943,131.45288100644137 L333.933829882943,168.04442369903606" transform="matrix(1,0,0,1,0,0)" fill="none" stroke-width="2.5" stroke-linecap="round" stroke-linejoin="round" stroke="#000000"/>
			</g>
			<g transform="matrix(0.4,-0.692820323,-0.547232229,-0.652165975,53.849592706,483.791051062)">
				<path d="M331.7463298829414,168.04442369903606 L336.1213298829414,168.04442369903606 L333.9338298829414,172.88817369903606 C333.9338298829414,172.88817369903606 331.7463298829414,168.04442369903606 331.7463298829414,168.04442369903606 Z" transform="matrix(1,0,0,1,0,0)" fill="#969696" stroke-width="2.5" stroke-linecap="round" stroke-linejoin="round" stroke="#000000"/>
			</g>
			<g transform="matrix(0.4,-0.692820323,-0.547232229,-0.652165975,53.849592706,483.791051062)">
				<path d="M332.4787594905834,117.95648666710474 L335.60876888235015,117.95787091632205 L337.08321620632245,131.45288100644137 L330.7844435595634,131.45288100644137 L332.4787594905834,117.95648666710474 Z" fill="#74592e" stroke-width="2.5" stroke-linecap="round" stroke-linejoin="round" stroke="#000000"/>
			</g>
		</g>
		<g transform="matrix(2.5,0,0,2.5,183.411104606,80.476561537)">
			<g transform="matrix(1,0,0,1,-12.822557195,18.307162499)">
				<path d="M80.69034896479502,251.87966702776316 L107.96299190132025,264.62793087669496" transform="matrix(1,0,0,1,0,0)" fill="none" stroke-width="2" stroke-linecap="round" stroke-linejoin="round" stroke="#000000"/>
			</g>
			<g transform="matrix(1,0,0,1,-12.822557195,18.307162499)">
				<path d="M109.2348247081226,264.0261211428834 C107.91914447890497,264.1294644940103 107.54471029226313,264.9892738902951 107.70269637913404,266.196178416834 L113.34459940160001,267.679430210701 C113.34459940160001,267.679430210701 109.2348247081226,264.0261211428834 109.2348247081226,264.0261211428834 Z" transform="matrix(1,0,0,1,0,0)" fill="#969696" stroke-width="2" stroke-linecap="round" stroke-linejoin="round" stroke="#000000"/>
			</g>
		</g>
		<g transform="matrix(2.5,0,0,2.5,183.411104606,80.476561537)">
			<g transform="matrix(1,0,0,1,-12.822557195,18.307162499)">
				<path d="M131.8514905408353,268.29459358734044 L102.25080427579039,273.7822758434083" transform="matrix(1,0,0,1,0,0)" fill="none" stroke-width="2" stroke-linecap="round" stroke-linejoin="round" stroke="#000000"/>
			</g>
			<g transform="matrix(1,0,0,1,-12.822557195,18.307162499)">
				<path d="M101.56605932971746,275.01144548304177 C102.57633367871273,274.1623047093543 102.38097581753331,273.2450760224168 101.55063348869433,272.35507054110604 L96.09816877740307,274.42913278005744 C96.09816877740307,274.42913278005744 101.56605932971746,275.01144548304177 101.56605932971746,275.01144548304177 Z" transform="matrix(1,0,0,1,0,0)" fill="#969696" stroke-width="2" stroke-linecap="round" stroke-linejoin="round" stroke="#000000"/>
			</g>
		</g>
	</g>
</g></g></svg>