<svg xmlns="http://www.w3.org/2000/svg" width="960" height="540" viewBox="0 0 960 540">
<rect width="960" height="540" fill="#4A5744"/>
<g fill="none" stroke-linejoin="round" stroke-linecap="round">
<polyline points="-30,268 176,268 176,156 424,156 424,402 700,402 700,214 990,214" stroke="#3B4436" stroke-width="64" transform="translate(0,9)"/>
<polyline points="-30,268 176,268 176,156 424,156 424,402 700,402 700,214 990,214" stroke="#3E3327" stroke-width="54" transform="translate(0,7)"/>
<polyline points="-30,268 176,268 176,156 424,156 424,402 700,402 700,214 990,214" stroke="#43372A" stroke-width="54"/>
<polyline points="-30,268 176,268 176,156 424,156 424,402 700,402 700,214 990,214" stroke="#7B6852" stroke-width="52"/>
<polyline points="-30,268 176,268 176,156 424,156 424,402 700,402 700,214 990,214" stroke="#8A7660" stroke-width="40"/>
<polyline points="-30,268 176,268 176,156 424,156 424,402 700,402 700,214 990,214" stroke="#96806A" stroke-width="24"/>
<polyline points="-30,268 176,268 176,156 424,156 424,402 700,402 700,214 990,214" stroke="#E03030" stroke-width="1" stroke-dasharray="6 6"/>
</g>
<circle cx="104" cy="190" r="98" fill="none" stroke="#F0E6D2" stroke-opacity=".28" stroke-width="1" stroke-dasharray="4 5"/>
<ellipse cx="104" cy="190" rx="30" ry="18.6" fill="#8A7355" stroke="#A98D66" stroke-width="2"/>
<text x="104" y="194" font-family="monospace" font-size="10" fill="#3A3226" text-anchor="middle">104,190</text>
<circle cx="262" cy="218" r="98" fill="none" stroke="#F0E6D2" stroke-opacity=".28" stroke-width="1" stroke-dasharray="4 5"/>
<ellipse cx="262" cy="218" rx="30" ry="18.6" fill="#8A7355" stroke="#A98D66" stroke-width="2"/>
<text x="262" y="222" font-family="monospace" font-size="10" fill="#3A3226" text-anchor="middle">262,218</text>
<circle cx="500" cy="136" r="98" fill="none" stroke="#F0E6D2" stroke-opacity=".28" stroke-width="1" stroke-dasharray="4 5"/>
<ellipse cx="500" cy="136" rx="30" ry="18.6" fill="#8A7355" stroke="#A98D66" stroke-width="2"/>
<text x="500" y="140" font-family="monospace" font-size="10" fill="#3A3226" text-anchor="middle">500,136</text>
<circle cx="348" cy="328" r="98" fill="none" stroke="#F0E6D2" stroke-opacity=".28" stroke-width="1" stroke-dasharray="4 5"/>
<ellipse cx="348" cy="328" rx="30" ry="18.6" fill="#8A7355" stroke="#A98D66" stroke-width="2"/>
<text x="348" y="332" font-family="monospace" font-size="10" fill="#3A3226" text-anchor="middle">348,328</text>
<circle cx="520" cy="254" r="98" fill="none" stroke="#F0E6D2" stroke-opacity=".28" stroke-width="1" stroke-dasharray="4 5"/>
<ellipse cx="520" cy="254" rx="30" ry="18.6" fill="#8A7355" stroke="#A98D66" stroke-width="2"/>
<text x="520" y="258" font-family="monospace" font-size="10" fill="#3A3226" text-anchor="middle">520,254</text>
<circle cx="596" cy="476" r="98" fill="none" stroke="#F0E6D2" stroke-opacity=".28" stroke-width="1" stroke-dasharray="4 5"/>
<ellipse cx="596" cy="476" rx="30" ry="18.6" fill="#8A7355" stroke="#A98D66" stroke-width="2"/>
<text x="596" y="480" font-family="monospace" font-size="10" fill="#3A3226" text-anchor="middle">596,476</text>
<circle cx="636" cy="306" r="98" fill="none" stroke="#F0E6D2" stroke-opacity=".28" stroke-width="1" stroke-dasharray="4 5"/>
<ellipse cx="636" cy="306" rx="30" ry="18.6" fill="#8A7355" stroke="#A98D66" stroke-width="2"/>
<text x="636" y="310" font-family="monospace" font-size="10" fill="#3A3226" text-anchor="middle">636,306</text>
<circle cx="796" cy="330" r="98" fill="none" stroke="#F0E6D2" stroke-opacity=".28" stroke-width="1" stroke-dasharray="4 5"/>
<ellipse cx="796" cy="330" rx="30" ry="18.6" fill="#8A7355" stroke="#A98D66" stroke-width="2"/>
<text x="796" y="334" font-family="monospace" font-size="10" fill="#3A3226" text-anchor="middle">796,330</text>
<circle cx="918" cy="214" r="6" fill="#E03030"/>
<text x="848" y="174" font-family="monospace" font-size="11" fill="#F0E6D2">keep 918,214</text>
<rect x="0" y="0" width="960" height="40" fill="#E03030" fill-opacity=".30"/>
<text x="8" y="25" font-family="monospace" font-size="13" fill="#fff">HUD BAR y 0-40 — covered at runtime, keep detail out</text>
<rect x=".5" y=".5" width="959" height="539" fill="none" stroke="#fff" stroke-opacity=".5"/>
</svg>