<svg xmlns="http://www.w3.org/2000/svg" xmlns:graphite="https://graphite.art" viewBox="0 0 1920 1080" width="1920" height="1080"><defs><clipPath id="artboard-6231469383556857085"><rect x="0" y="0" width="1920" height="1080" /></clipPath></defs><g>
<rect fill="#5c7f49" x="0" y="0" width="1920" height="1080"/>
<g clip-path="url(#artboard-6231469383556857085)">
	<g>
		<path d="M0,0 L1920,0 L1920,100.00000000000003 L0,100.00000000000003 L0,0 Z" fill="#362407" stroke-width="2" stroke="#362407"/>
	</g>
	<g>
		<path d="M-352.8271870150279,-7.664878024589789 C-496.66459758054555,3.7266025089525323 -663.2522397953801,34.650142228347605 -734.4091785909004,56.53004524525335 C-805.5661173864207,78.40994826215909 -781.2923527626269,91.24621457657551 -783.4585373096974,120.17239402069669 C-785.6247218567678,149.09857346481786 -814.2308555747024,194.11466603864375 -736.1171361190449,194.15039754366157 C-658.0034166633873,194.1861290486794 -473.16984403413727,149.24149948488918 -324.7882175946557,130.5917721764607 C-176.4065911551741,111.94204486803223 -64.47691090546108,119.58721981496555 4.240590627476074,136.9212618395843 C72.95809216041323,154.25530386420306 98.4634149765744,181.27821296650725 87.76594191347435,210.04982959466489 C77.0684688503743,238.82144622282252 30.16819990801298,269.34177037683355 -26.291784094604367,304.7171098718843 C-82.75176809722171,340.09244936693506 -148.77146716009514,380.3228042030255 -215.25527365989657,421.47054600655906 C-281.739080159698,462.6182878100926 -348.6869940964275,504.6834165810693 -362.79800057991224,550.8815161243558 C-376.909007063397,597.0796156676423 -338.183106093637,647.4106859832389 -275.16331775057273,676.2617791429586 C-212.14352940750848,705.1128723026784 -124.82985369113996,712.4839883065216 -42.11048900143039,719.2363426299854 C40.60887568827918,725.9886969534492 118.73392935132989,732.1222895965336 194.15491182464663,729.4855635024466 C269.5758942979634,726.8488374083595 342.2928055815462,715.4417925771008 421.5536137183841,699.6755211636956 C500.814421855222,683.9092497502904 586.619126845315,663.7837517547387 635.6405532282679,632.9907339873632 C684.6619796112208,602.1977162199878 696.9001273870335,560.7371786807889 683.0012961981924,522.9835402082557 C669.1024650093514,485.2299017357225 629.0666548558565,451.18316232985507 577.6246486453026,417.923866433623 C526.1826424347487,384.66457053739094 463.33444016713554,352.19271815079435 502.9601901479064,310.7738790942649 C542.5859401286773,269.3550400377354 684.685642357832,218.9892143112732 792.6890430684189,191.41264209413572 C900.6924437790058,163.83606987699824 974.5995429710247,159.04875116918558 1063.879925284284,153.80827328207187 C1153.1603075975431,148.56779539495815 1257.813973032043,142.8741583285434 1298.4579660902098,131.88529883380528 C1339.1019591483766,120.89643933906719 1315.7362798302108,104.61235741600578 1320.4981533100158,82.40895073297236 C1325.2600267898208,60.205544049938936 1358.149453067597,32.082812606933516 1295.0127478410357,21.491798895818327 C1231.8760426144743,10.90078518470314 1072.7132058835755,17.841489205478197 928.4563989485116,33.430756911181525 C784.1995920134477,49.020024616884854 654.8488148742185,73.2578560075165 534.4734935376894,127.30562840294738 C414.09817220116025,181.35340079837826 302.69830666733117,265.2111141986084 275.8996073663852,323.6028138889645 C249.10090806543926,381.99451357932054 306.9033749973764,414.9201995598025 351.7757667455737,448.6898726071337 C396.64815849377106,482.4595456544649 428.5904750582287,517.0732057686453 407.43543029761577,540.6826706374474 C386.2803855370028,564.2921355062495 312.0279794513193,576.8974051296731 244.64797801518628,584.9304967104264 C177.26797657905325,592.9635882911797 116.76037979247062,596.4245018292628 53.21294966537263,592.1052410155803 C-10.334480461725349,587.7859802018978 -76.92174392933869,575.6865450364497 -94.52681500869512,554.6338003102154 C-112.13188608805156,533.5810555839811 -80.75476477915112,503.5750012969607 -36.66625018838515,472.2763025459203 C7.4222644023808115,440.97760379487994 64.22217227501233,408.3862605798196 114.21547352425137,371.0537729893935 C164.2087747734904,333.72128539896744 207.39546939933695,291.6476534331757 241.0606231818656,258.7353961801444 C274.72577696439424,225.8231389271131 298.86938990360494,202.0722563868422 309.867046309911,173.2712029124871 C320.8647027162171,144.47014943813198 318.71640258961855,110.61892502969262 298.97629083353036,84.90390829859513 C279.23617907744216,59.188891567497635 241.9042556918644,41.610082513742 194.67366884517628,28.35293220128125 C147.44308199848817,15.095781888820495 90.31383169068972,6.160290317654626 1.2056170786901248,-2.377744794083526 C-87.90259753330947,-10.915779905821678 -208.98977644951026,-19.05635855813211 -352.8271870150279,-7.664878024589789 Z" transform="matrix(1,0,0,1,698.002054517,281.26460382)" fill="#ffefd4" stroke-width="2" stroke-linecap="round" stroke="#ffefd4"/>
	</g>
	
	
	
	
	
	
	
	
	
</g></g></svg>