<svg xmlns="http://www.w3.org/2000/svg" xmlns:graphite="https://graphite.art" viewBox="0 0 1920 1080" width="1920" height="1080"><defs><clipPath id="artboard-5655261345976018340"><rect x="0" y="0" width="1920" height="1080" /></clipPath></defs><g>
<rect fill="#ffffff" fill-opacity="0" x="0" y="0" width="1920" height="1080"/>
<g clip-path="url(#artboard-5655261345976018340)">
	<g>
		<path d="M1641.7888805717705,836.0250150590983 C1859.6542861684952,836.0250150590983 2034.000020340001,883.551147013114 2034.000020340001,996.6076393388428 C2034.000020340001,1109.6641316645716 1857.0277747901073,1201.5000120150007 1639.1623691933826,1201.5000120150007 C1421.2969635966579,1201.5000120150007 1244.3247180467642,1109.6641316645716 1244.3247180467642,996.6076393388428 C1244.3247180467642,883.551147013114 1423.9234749750458,836.0250150590983 1641.7888805717705,836.0250150590983 Z" transform="matrix(1,0,0,1,0,0)" fill="#626160" stroke-width="4" stroke="#000000"/>
	</g>
	<g>
		<path d="M1302.9310028062803,910.180186623513 C1420,900.0011168624395 1440.5017539872154,898.3608836666909 1444.3249945438897,908.4052097389894 C1462.5,956.1541490120585 1345.7762466761242,934.9320913627628 1353.3447955279726,952.2779952293604 C1378.8399641496212,1010.7088454003049 1434.8562647540261,1093.5775895919016 1387.84287616736,1094.080655617824 C1343.0544818582946,1094.5599131274369 1228.6265214775983,1045.281964611753 1207.5567499644712,1041.249999999999 C1200.0404985677364,1039.8116711777905 1176.5391773425545,1038.3682914496312 1152.4999999999998,1035 C1136.9949125498958,1032.8274775072475 1127.4591604623672,1019.783903310968 1139.2008279629754,1012.9787666253947 C1180.493729108667,989.0465750158345 1169.8285770917144,921.7533521002337 1302.9310028062803,910.180186623513 Z" fill="#362407" stroke-width="2" stroke-linecap="round" stroke-linejoin="round" stroke="#362407"/>
	</g>
	<g>
		<g transform="matrix(1,0,0,1,282.849683292,287.974517832)">
			<path d="M1083.9567678559497,497.42336718449627 C1075.1381681277526,497.42336718449627 1062.8032587436383,534.8333835601807 1057.3299927949242,534.8333835601807 C1049.3085008573776,534.8333835601807 997.828707276822,433.06292086755184 991.7096822925193,433.06292086755184 C990.0029262337915,433.06292086755184 977.6308844819874,467.97464704452875 973.3374758029876,467.97464704452875 C968.2558844819874,467.9746470445287 919.1192961708124,590.06888320984 912.621037974381,597.581826687566 C867.507967599043,649.739179872259 1202.3033518045681,661.7364161767254 1157.3716742099,610.4976250274653 C1146.290435539118,597.8608995740032 1136.0717270590326,562.0715092516339 1128.7161069296117,562.0715092516339 C1120.8717270590325,562.0715092516339 1087.9923989284991,497.42336718449627 1083.9567678559497,497.42336718449627 Z" transform="matrix(1,0,0,1,0,0)" fill="#969696" stroke-width="4" stroke-linecap="round" stroke-linejoin="round" stroke="#000000"/>
		</g>
		<g transform="matrix(1,0,0,1,282.849683292,287.974517832)">
			<path d="M1083.9567678559495,497.4233671844962 C1083.9567678559495,497.4233671844962 1082.9338704233658,577.9042308185685 1078.5779181927526,577.9042308185685 C1068.9604758320543,577.9042308185685 1069.5770516863847,625.7833241608691 1069.121037116218,643.3066274396833" fill="none" stroke-width="4" stroke-linecap="round" stroke-linejoin="round" stroke="#000000"/>
		</g>
		<g transform="matrix(1,0,0,1,282.849683292,287.974517832)">
			<path d="M991.709682292519,433.0629208675518 C991.709682292519,433.0629208675518 985.7939399419837,498.0435713726907 992.3393070852492,498.04357137269085 C997.4519834217592,498.043571372691 995.3288539941577,565.1902690080111 991.0455519972413,565.1902690080111 C984.1543843562142,565.1902690080111 967.6480318879869,617.6955730814849 961.9834081864057,634.7295573195067" transform="matrix(1,0,0,1,0,0)" fill="none" stroke-width="4" stroke-linecap="round" stroke-linejoin="round" stroke="#000000"/>
		</g>
		<g transform="matrix(1,0,0,1,282.849683292,287.974517832)">
			<path d="M1055.8137129395989,534.0969632898573 C1071.960160951127,556.7557319012237 1070.9039547081732,538.5833778381348 1078.7599951597372,577.856784896906" fill="none" stroke-width="4" stroke-linecap="round" stroke-linejoin="round" stroke="#000000"/>
		</g>
		<g transform="matrix(1,0,0,1,282.849683292,287.974517832)">
			<path d="M1082.4326493341737,548.050497226948 C1082.4326493341737,548.050497226948 1113.480157457534,605.2234221843279 1117.8361096881472,605.2234221843279 C1122.8361096881472,605.2234221843279 1131.6133364262619,629.2608649893691 1131.6133364262619,636.3150937192081" fill="none" stroke-width="4" stroke-linecap="round" stroke-linejoin="round" stroke="#000000"/>
		</g>
		<g transform="matrix(1,0,0,1,282.849683292,287.974517832)">
			<path d="M991.0455519972415,565.1902690080111 C991.0455519972415,565.1902690080111 1033.1050962829202,605.3663887102493 1037.3414329705604,604.3525981478858 C1041.7164329705604,603.3056243029409 1045.9669538258167,618.1373858876556 1057.4672374932763,643.3625031938881" fill="none" stroke-width="4" stroke-linecap="round" stroke-linejoin="round" stroke="#000000"/>
		</g>
	</g>
	<g>
		<g transform="matrix(1,0,0,1,-80.390946806,230.244260422)">
			<path d="M1383.378782606205,572.3277132359118 C1375.2738380375597,572.3277132359118 1347.702542961796,669.756856442968 1339.2025429617959,669.756856442968 C1331.9524763246932,669.756856442968 1308.4002188754487,626.2065098442401 1302.7025429617959,629.756856442968 C1286.3116213739904,639.9703985241944 1263.6183879562043,700.1665130998499 1249.56721539859,699.2579454449692 C1242.4120549855886,698.7952831803019 1245.610763670658,761.3827360541961 1222.2729277808012,778.0629311878031 C1187.8238103964716,802.6846657335027 1483.5768641423588,809.3510589227573 1460.9174762830553,773.5806292015493 C1455.5866585560702,765.1653250440099 1448.8422215021055,721.6667413663891 1440.5275603829211,721.6667413663891 C1433.6422215021055,721.6667413663891 1388.660345300914,572.3277132359119 1383.378782606205,572.3277132359118 Z" transform="matrix(1,0,0,1,0,0)" fill="#969696" stroke-width="4" stroke-linecap="round" stroke-linejoin="round" stroke="#000000"/>
		</g>
		<g transform="matrix(1,0,0,1,-80.390946806,230.244260422)">
			<path d="M1383.3746281483495,571.2590055262785 C1383.3746281483495,571.2590055262785 1393.6037311972407,630.7169747367989 1383.3219496120203,633.9619638132099 C1382.575569278154,634.1970745330038 1404.9299368546078,761.9432016674255 1408.3419710719334,760.2315123652197 C1416.7922078658596,755.9923462256122 1416.8437578152884,777.5955552631677 1421.9312957013365,793.8226953494402" transform="matrix(1,0,0,1,0,0)" fill="none" stroke-width="4" stroke-linecap="round" stroke-linejoin="round" stroke="#000000"/>
		</g>
		<g transform="matrix(1,0,0,1,-80.390946806,230.244260422)">
			<path d="M1383.3219496120203,633.9619638132098 C1383.3219496120203,633.9619638132098 1357.8994477404235,714.1243653147067 1354.2135801096863,713.1367400596425 C1349.239042894997,711.8038168302479 1349.9271430436668,722.0316474743812 1347.7797278662604,725.9098885903011" fill="none" stroke-width="4" stroke-linecap="round" stroke-linejoin="round" stroke="#000000"/>
		</g>
		<g transform="matrix(1,0,0,1,-80.390946806,230.244260422)">
			<path d="M1302.6156701661057,629.7568564429681 C1302.6156701661057,629.7568564429681 1292.3865671172146,689.2148256534883 1302.668348702435,692.4598147298994 C1303.4147290363012,692.6949254496934 1285.1438953702675,756.2545444835391 1288.318585496361,758.3742615332346 C1295.3124490687424,763.0440123652198 1293.8560132215612,769.7718861015319 1300.7909191424035,797.5628149803217" transform="matrix(1,0,0,1,0,0)" fill="none" stroke-width="4" stroke-linecap="round" stroke-linejoin="round" stroke="#000000"/>
		</g>
		<g transform="matrix(1,0,0,1,-80.390946806,230.244260422)">
			<path d="M1302.668348702435,692.4598147298992 C1302.668348702435,692.4598147298992 1347.779727866261,725.9098885903009 1347.7797278662608,725.909888590301 C1343.7177425987495,743.5680340083143 1337.4044710719338,774.6407159126458 1340.8176390077424,798.4762289218498" fill="none" stroke-width="4" stroke-linecap="round" stroke-linejoin="round" stroke="#000000"/>
		</g>
	</g>
	<g>
		<g transform="matrix(1,0,0,1,599.058855463,522.134454267)">
			<path d="M659.7527406932561,377.8666625976562 C668.9060324403063,377.8660578379377 684.1060247363737,497.86666259765616 698.1333374023437,497.86666259765616 C701.8570826895972,497.8666625976562 704.864376078873,442.11747754656096 717.9697788804257,442.11747754656096 C730.3141605529913,442.117477546561 733.4933750144099,390.6666625976562 737.9204793010507,390.6666625976562 C741.303161245896,390.6666625976562 767.4960947871755,474.2980104231611 777.276361766982,474.2980104231611 C788.4701200152764,474.2980104231611 805.1457098092287,548.9995212481538 810.9366672433875,555.2610574813827 C840.5749386708247,587.3077634955715 560.4794937647823,582.8699750238253 585.7283275522256,556.7193971725449 C594.2650448419508,547.8777971224722 615.4666625976562,455.7333618164063 622.4000000000001,455.7333618164063 C631.4666625976563,455.7333618164063 655.4215484760456,377.86694876034596 659.7527406932561,377.8666625976562 Z" transform="matrix(1,0,0,1,0,0)" fill="#969696" stroke-width="4" stroke-linecap="round" stroke-linejoin="round" stroke="#000000"/>
		</g>
		<g transform="matrix(1,0,0,1,599.058855463,522.134454267)">
			<path d="M695.4416225750822,496.46925016617377 C695.4416225750822,496.46925016617377 726.266680908203,533.8666687011719 731.8666809082031,533.8666687011719 C736.1333312988281,533.866668701172 738.2200758107628,556.4319447386515 744.6987583376655,576.7775372889554" fill="none" stroke-width="4" stroke-linecap="round" stroke-linejoin="round" stroke="#000000"/>
		</g>
		<g transform="matrix(1,0,0,1,599.058855463,522.134454267)">
			<path d="M659.7527406932562,377.8666625976563 C659.7527406932562,377.8666625976563 655.0171376251061,469.06250476837135 661.5625047683716,469.0625047683716 C666.6751811048816,469.06250476837175 663.970806765288,525.1041650772094 659.6875047683716,525.1041650772094 C652.7963371273445,525.1041650772094 629.6562666002162,556.3710981416533 623.9916428986351,573.4050823796752" transform="matrix(1,0,0,1,0,0)" fill="none" stroke-width="4" stroke-linecap="round" stroke-linejoin="round" stroke="#000000"/>
		</g>
		<g transform="matrix(1,0,0,1,599.058855463,522.134454267)">
			<path d="M659.6875047683716,525.1041650772094 C659.6875047683716,525.1041650772094 691.2052858874418,549.451295330735 695.4416225750822,548.4375047683716 C699.8166225750821,547.3905309234267 705.4884840060039,552.5111366739578 716.9887676734635,577.7362539801903" fill="none" stroke-width="4" stroke-linecap="round" stroke-linejoin="round" stroke="#000000"/>
		</g>
		<g transform="matrix(1,0,0,1,599.058855463,522.134454267)">
			<path d="M737.8884772691284,390.6675585285516 C737.8884772691284,390.6675585285516 735.0639438818276,457.12927672629854 741.6093110250931,457.1292767262987 C746.7219873616032,457.1292767262989 761.2238829574177,527.2458160756676 764.9333312988279,525.1041650772095 C768.9578624243751,522.7806009485128 781.25065311875,552.7466677726725 784.7136043821502,572.6838945571391" transform="matrix(1,0,0,1,0,0)" fill="none" stroke-width="4" stroke-linecap="round" stroke-linejoin="round" stroke="#000000"/>
		</g>
	</g>
</g></g></svg>