<svg xmlns="http://www.w3.org/2000/svg" viewBox="0 0 1920 1080" width="1920" height="1080">
<defs><clipPath id="artboard-sheet"><rect x="0" y="0" width="1920" height="1080"/></clipPath></defs>
<g clip-path="url(#artboard-sheet)">
<g>
		<path d="M225.7689131436279,609.7489369682226 C384.9263553480574,609.7489369682226 514.2100746505714,651.545248948355 514.2100746505714,702.9994780208543 C514.2100746505714,754.4537070933536 384.9263553480574,796.2500190734861 225.7689131436279,796.2500190734861 C66.6114709391984,796.2500190734861 -62.67224836331559,754.4537070933536 -62.67224836331559,702.9994780208543 C-62.67224836331559,651.545248948355 66.6114709391984,609.7489369682226 225.7689131436279,609.7489369682226 Z" transform="matrix(1,0,0,1,0,0)" fill="#595959" stroke-width="2" stroke="#595959"/>
	</g>
<g>
		<path d="M167.03182521129642,347.2140090586066 L333.13867592334793,288.9348474884031 L496.37199959278144,681.3348535919185 L256.9053369951252,780.2681787872314 L167.03182521129642,347.2140090586066 Z" transform="matrix(1,0,0,1,0,0)" fill="#868686" stroke-width="2" stroke-linecap="round" stroke-linejoin="round" stroke="#000000"/>
	</g>
<g>
		<path d="M167.03182521129642,347.2140090586066 L-76.458330154419,313.3733692169188 L65.66666412353527,253.43888045719106 L333.13867592334793,288.9348474884032 L167.03182521129642,347.2140090586066 Z" transform="matrix(1,0,0,1,0,0)" fill="#868686" stroke-width="2" stroke-linecap="round" stroke-linejoin="round" stroke="#000000"/>
	</g>
<g>
		<path d="M167.0318252112965,338.39321139033916 L-40.66666870117194,309.5343527488342 L70.71587034572156,262.5048885494265 L295.9945238758446,292.2744971337372 L167.0318252112965,338.39321139033916 Z" fill="#868686" stroke-width="2" stroke-linecap="round" stroke-linejoin="round" stroke="#000000"/>
	</g>
<g>
		<path d="M167.03182521129645,338.39321139033916 L-0.00000000000002842170943040401,315.1848205079438 L70.71587034572144,285.62500476837147 L248.69300271604564,308.9315453395891 L167.03182521129645,338.39321139033916 Z" transform="matrix(1,0,0,1,0,0)" fill="#868686" stroke-width="2" stroke-linecap="round" stroke-linejoin="round" stroke="#000000"/>
	</g>
<g>
		<path d="M167.03182521129642,347.2140090586066 L-76.458330154419,313.3733692169188 L-76.458330154419,723.3304004669187 L256.9053369951252,780.2681787872314 L167.03182521129642,347.2140090586066 Z" transform="matrix(1,0,0,1,0,0)" fill="#868686" stroke-width="2" stroke-linecap="round" stroke-linejoin="round" stroke="#000000"/>
	</g>
<g>
		<path d="M243.39961140547948,256.1826345870709 L263.3477800768713,258.58522253294575 L263.3477800768713,288.06465077154195 L243.5604962190062,285.3145833387395 L243.39961140547948,256.1826345870709 Z" transform="matrix(1,0,0,1,0,0)" fill="#868686" stroke-width="2" stroke-linecap="round" stroke-linejoin="round" stroke="#000000"/>
	</g>
<g>
		<path d="M280.8294403399618,252.69094377341497 L263.3477800768713,258.58522253294575 L263.3477800768713,288.06465077154195 L280.70607964160155,281.9744314905168 L280.8294403399618,252.69094377341497 Z" transform="matrix(1,0,0,1,0,0)" fill="#868686" stroke-width="2" stroke-linecap="round" stroke-linejoin="round" stroke="#000000"/>
	</g>
<g>
		<path d="M280.8294403399618,252.69094377341497 L263.3477800768713,258.58522253294575 L243.39961140547948,256.1826345870709 L259.4590317999313,250.2393840184651 L280.8294403399618,252.69094377341497 Z" transform="matrix(1,0,0,1,0,0)" fill="#868686" stroke-width="2" stroke-linecap="round" stroke-linejoin="round" stroke="#000000"/>
	</g>
<g>
		<path d="M195.2416339726921,249.74579772571167 L215.18980264408393,252.14838567158657 L215.18980264408395,281.62781391018274 L195.40251878621885,278.8777464773803 L195.2416339726921,249.74579772571167 Z" transform="matrix(1,0,0,1,0,0)" fill="#868686" stroke-width="2" stroke-linecap="round" stroke-linejoin="round" stroke="#000000"/>
	</g>
<g>
		<path d="M232.67146290717446,246.25410691205576 L215.18980264408393,252.14838567158657 L215.18980264408395,281.62781391018274 L232.54810220881419,275.5375946291576 L232.67146290717446,246.25410691205576 Z" transform="matrix(1,0,0,1,0,0)" fill="#868686" stroke-width="2" stroke-linecap="round" stroke-linejoin="round" stroke="#000000"/>
	</g>
<g>
		<path d="M232.67146290717446,246.25410691205576 L215.18980264408393,252.14838567158657 L195.2416339726921,249.74579772571164 L211.301054367144,243.8025471571059 L232.67146290717446,246.25410691205576 Z" transform="matrix(1,0,0,1,0,0)" fill="#868686" stroke-width="2" stroke-linecap="round" stroke-linejoin="round" stroke="#000000"/>
	</g>
<g>
		<path d="M147.08365653990475,243.40413512805526 L167.03182521129656,245.80672307393016 L167.0318252112966,275.28615131252633 L147.2445413534315,272.5360838797239 L147.08365653990475,243.40413512805526 Z" transform="matrix(1,0,0,1,0,0)" fill="#868686" stroke-width="2" stroke-linecap="round" stroke-linejoin="round" stroke="#000000"/>
	</g>
<g>
		<path d="M184.5134854743871,239.91244431439935 L167.03182521129656,245.80672307393016 L167.0318252112966,275.28615131252633 L184.39012477602682,269.1959320315012 L184.5134854743871,239.91244431439935 Z" transform="matrix(1,0,0,1,0,0)" fill="#868686" stroke-width="2" stroke-linecap="round" stroke-linejoin="round" stroke="#000000"/>
	</g>
<g>
		<path d="M184.5134854743871,239.91244431439935 L167.03182521129656,245.80672307393016 L147.08365653990475,243.40413512805523 L163.14307693435663,237.46088455944948 L184.5134854743871,239.91244431439935 Z" transform="matrix(1,0,0,1,0,0)" fill="#868686" stroke-width="2" stroke-linecap="round" stroke-linejoin="round" stroke="#000000"/>
	</g>
<g>
		<path d="M295.83363906231796,263.14254838206864 L315.78180773370974,265.5451363279435 L315.78180773370974,295.0245645665397 L295.99452387584466,292.27449713373727 L295.83363906231796,263.14254838206864 Z" transform="matrix(1,0,0,1,0,0)" fill="#868686" stroke-width="2" stroke-linecap="round" stroke-linejoin="round" stroke="#000000"/>
	</g>
<g>
		<path d="M333.2634679968003,259.65085756841273 L315.78180773370974,265.5451363279435 L315.78180773370974,295.0245645665397 L333.14010729844,288.93434528551455 L333.2634679968003,259.65085756841273 Z" transform="matrix(1,0,0,1,0,0)" fill="#868686" stroke-width="2" stroke-linecap="round" stroke-linejoin="round" stroke="#000000"/>
	</g>
<g>
		<path d="M333.2634679968003,259.65085756841273 L315.78180773370974,265.5451363279435 L295.8336390623179,263.14254838206864 L311.8930594567698,257.19929781346286 L333.2634679968003,259.65085756841273 Z" transform="matrix(1,0,0,1,0,0)" fill="#868686" stroke-width="2" stroke-linecap="round" stroke-linejoin="round" stroke="#000000"/>
	</g>
<g>
		<path d="M147.08365653990464,315.33199287413555 L167.03182521129645,317.7345808200104 L167.03182521129648,347.2140090586066 L147.24454135343137,344.4639416258042 L147.08365653990464,315.33199287413555 Z" transform="matrix(1,0,0,1,0,0)" fill="#868686" stroke-width="2" stroke-linecap="round" stroke-linejoin="round" stroke="#000000"/>
	</g>
<g>
		<path d="M184.51348547438698,311.84030206047964 L167.03182521129645,317.7345808200104 L167.03182521129648,347.2140090586066 L184.3901247760267,341.12378977758146 L184.51348547438698,311.84030206047964 Z" transform="matrix(1,0,0,1,0,0)" fill="#868686" stroke-width="2" stroke-linecap="round" stroke-linejoin="round" stroke="#000000"/>
	</g>
<g>
		<path d="M184.51348547438698,311.84030206047964 L167.03182521129645,317.7345808200104 L147.08365653990464,315.33199287413555 L163.14307693435651,309.3887423055298 L184.51348547438698,311.84030206047964 Z" transform="matrix(1,0,0,1,0,0)" fill="#868686" stroke-width="2" stroke-linecap="round" stroke-linejoin="round" stroke="#000000"/>
	</g>
<g>
		<path d="M248.53211790251888,279.7995965879205 L268.4802865739107,282.2021845337954 L268.4802865739107,311.6816127723916 L248.6930027160456,308.93154533958915 L248.53211790251888,279.7995965879205 Z" transform="matrix(1,0,0,1,0,0)" fill="#868686" stroke-width="2" stroke-linecap="round" stroke-linejoin="round" stroke="#000000"/>
	</g>
<g>
		<path d="M285.9619468370012,276.3079057742646 L268.4802865739107,282.2021845337954 L268.4802865739107,311.6816127723916 L285.83858613864095,305.59139349136643 L285.9619468370012,276.3079057742646 Z" transform="matrix(1,0,0,1,0,0)" fill="#868686" stroke-width="2" stroke-linecap="round" stroke-linejoin="round" stroke="#000000"/>
	</g>
<g>
		<path d="M285.9619468370012,276.3079057742646 L268.4802865739107,282.2021845337954 L248.53211790251888,279.7995965879205 L264.5915382969707,273.85634601931474 L285.9619468370012,276.3079057742646 Z" transform="matrix(1,0,0,1,0,0)" fill="#868686" stroke-width="2" stroke-linecap="round" stroke-linejoin="round" stroke="#000000"/>
	</g>
<g>
		<path d="M197.80788722121173,297.4010208212703 L217.75605589260354,299.8036087671452 L217.75605589260357,329.2830370057414 L197.96877203473846,326.53296957293895 L197.80788722121173,297.4010208212703 Z" transform="matrix(1,0,0,1,0,0)" fill="#868686" stroke-width="2" stroke-linecap="round" stroke-linejoin="round" stroke="#000000"/>
	</g>
<g>
		<path d="M235.23771615569407,293.9093300076144 L217.75605589260354,299.8036087671452 L217.75605589260357,329.2830370057414 L235.1143554573338,323.19281772471624 L235.23771615569407,293.9093300076144 Z" transform="matrix(1,0,0,1,0,0)" fill="#868686" stroke-width="2" stroke-linecap="round" stroke-linejoin="round" stroke="#000000"/>
	</g>
<g>
		<path d="M235.23771615569407,293.9093300076144 L217.75605589260354,299.8036087671452 L197.80788722121173,297.4010208212703 L213.8673076156636,291.45777025266455 L235.23771615569407,293.9093300076144 Z" transform="matrix(1,0,0,1,0,0)" fill="#868686" stroke-width="2" stroke-linecap="round" stroke-linejoin="round" stroke="#000000"/>
	</g>
<g>
		<path d="M96.35942585859753,308.0260208212703 L116.30759452998933,310.4286087671452 L116.30759452998936,339.9080370057414 L96.52031067212425,337.15796957293895 L96.35942585859753,308.0260208212703 Z" transform="matrix(1,0,0,1,0,0)" fill="#868686" stroke-width="2" stroke-linecap="round" stroke-linejoin="round" stroke="#000000"/>
	</g>
<g>
		<path d="M133.78925479307986,304.5343300076144 L116.30759452998933,310.4286087671452 L116.30759452998936,339.9080370057414 L133.6658940947196,333.81781772471624 L133.78925479307986,304.5343300076144 Z" transform="matrix(1,0,0,1,0,0)" fill="#868686" stroke-width="2" stroke-linecap="round" stroke-linejoin="round" stroke="#000000"/>
	</g>
<g>
		<path d="M133.78925479307986,304.5343300076144 L116.30759452998933,310.4286087671452 L96.35942585859752,308.0260208212703 L112.4188462530494,302.08277025266455 L133.78925479307986,304.5343300076144 Z" transform="matrix(1,0,0,1,0,0)" fill="#868686" stroke-width="2" stroke-linecap="round" stroke-linejoin="round" stroke="#000000"/>
	</g>
<g>
		<path d="M48.20144842581013,301.58919006342666 L68.14961709720193,303.9917780093015 L68.14961709720194,333.4712062478977 L48.36233323933685,330.7211388150953 L48.20144842581013,301.58919006342666 Z" transform="matrix(1,0,0,1,0,0)" fill="#868686" stroke-width="2" stroke-linecap="round" stroke-linejoin="round" stroke="#000000"/>
	</g>
<g>
		<path d="M85.63127736029246,298.09749924977075 L68.14961709720193,303.9917780093015 L68.14961709720194,333.4712062478977 L85.50791666193219,327.38098696687257 L85.63127736029246,298.09749924977075 Z" transform="matrix(1,0,0,1,0,0)" fill="#868686" stroke-width="2" stroke-linecap="round" stroke-linejoin="round" stroke="#000000"/>
	</g>
<g>
		<path d="M85.63127736029246,298.09749924977075 L68.14961709720193,303.9917780093015 L48.20144842581011,301.58919006342666 L64.26086882026199,295.6459394948209 L85.63127736029246,298.09749924977075 Z" transform="matrix(1,0,0,1,0,0)" fill="#868686" stroke-width="2" stroke-linecap="round" stroke-linejoin="round" stroke="#000000"/>
	</g>
<g>
		<path d="M3.3139159840423638,295.33919006342666 L23.262084655434165,297.7417780093015 L23.262084655434187,327.2212062478977 L3.47480079756909,324.4711388150953 L3.3139159840423638,295.33919006342666 Z" transform="matrix(1,0,0,1,0,0)" fill="#868686" stroke-width="2" stroke-linecap="round" stroke-linejoin="round" stroke="#000000"/>
	</g>
<g>
		<path d="M40.7437449185247,291.84749924977075 L23.262084655434165,297.7417780093015 L23.262084655434187,327.2212062478977 L40.620384220164425,321.13098696687257 L40.7437449185247,291.84749924977075 Z" transform="matrix(1,0,0,1,0,0)" fill="#868686" stroke-width="2" stroke-linecap="round" stroke-linejoin="round" stroke="#000000"/>
	</g>
<g>
		<path d="M40.7437449185247,291.84749924977075 L23.262084655434165,297.7417780093015 L3.3139159840423495,295.33919006342666 L19.373336378494223,289.3959394948209 L40.7437449185247,291.84749924977075 Z" transform="matrix(1,0,0,1,0,0)" fill="#868686" stroke-width="2" stroke-linecap="round" stroke-linejoin="round" stroke="#000000"/>
	</g>
<g>
		<path d="M98.92567910711722,236.96453496261176 L118.87384777850902,239.36712290848666 L118.87384777850903,268.84655114708283 L99.08656392064394,266.0964837142804 L98.92567910711722,236.96453496261176 Z" transform="matrix(1,0,0,1,0,0)" fill="#868686" stroke-width="2" stroke-linecap="round" stroke-linejoin="round" stroke="#000000"/>
	</g>
<g>
		<path d="M136.35550804159953,233.47284414895586 L118.87384777850902,239.36712290848666 L118.87384777850903,268.84655114708283 L136.23214734323926,262.7563318660577 L136.35550804159953,233.47284414895586 Z" transform="matrix(1,0,0,1,0,0)" fill="#868686" stroke-width="2" stroke-linecap="round" stroke-linejoin="round" stroke="#000000"/>
	</g>
<g>
		<path d="M136.35550804159953,233.47284414895586 L118.87384777850902,239.36712290848666 L98.9256791071172,236.96453496261174 L114.98509950156908,231.021284394006 L136.35550804159953,233.47284414895586 Z" transform="matrix(1,0,0,1,0,0)" fill="#868686" stroke-width="2" stroke-linecap="round" stroke-linejoin="round" stroke="#000000"/>
	</g>
<g>
		<path d="M50.76770167432976,230.62287236495547 L70.71587034572156,233.02546031083037 L70.71587034572158,262.50488854942654 L50.92858648785648,259.7548211166241 L50.76770167432976,230.62287236495547 Z" transform="matrix(1,0,0,1,0,0)" fill="#868686" stroke-width="2" stroke-linecap="round" stroke-linejoin="round" stroke="#000000"/>
	</g>
<g>
		<path d="M88.19753060881209,227.13118155129956 L70.71587034572156,233.02546031083037 L70.71587034572158,262.50488854942654 L88.07416991045181,256.4146692684014 L88.19753060881209,227.13118155129956 Z" transform="matrix(1,0,0,1,0,0)" fill="#868686" stroke-width="2" stroke-linecap="round" stroke-linejoin="round" stroke="#000000"/>
	</g>
<g>
		<path d="M88.19753060881209,227.13118155129956 L70.71587034572156,233.02546031083037 L50.76770167432974,230.62287236495544 L66.82712206878162,224.6796217963497 L88.19753060881209,227.13118155129956 Z" transform="matrix(1,0,0,1,0,0)" fill="#868686" stroke-width="2" stroke-linecap="round" stroke-linejoin="round" stroke="#000000"/>
	</g>
<g>
		<path d="M2.5668335443512156,251.0013332359041 L22.515002215743017,253.403921181779 L22.51500221574304,282.88334942037517 L2.727718357877942,280.13328198757273 L2.5668335443512156,251.0013332359041 Z" transform="matrix(1,0,0,1,0,0)" fill="#868686" stroke-width="2" stroke-linecap="round" stroke-linejoin="round" stroke="#000000"/>
	</g>
<g>
		<path d="M39.99666247883354,247.5096424222482 L22.515002215743017,253.403921181779 L22.515002215743042,282.88334942037517 L40.039553176024654,275.3512429913129 L39.99666247883354,247.5096424222482 Z" transform="matrix(1,0,0,1,0,0)" fill="#868686" stroke-width="2" stroke-linecap="round" stroke-linejoin="round" stroke="#000000"/>
	</g>
<g>
		<path d="M39.99666247883354,247.5096424222482 L22.515002215743017,253.403921181779 L2.5668335443512014,251.00133323590407 L18.626253938803075,245.05808266729832 L39.99666247883354,247.5096424222482 Z" transform="matrix(1,0,0,1,0,0)" fill="#868686" stroke-width="2" stroke-linecap="round" stroke-linejoin="round" stroke="#000000"/>
	</g>
<g>
		<path d="M-24.091956194634882,264.24651193028006 L-4.143787523243079,266.64909987615493 L-4.143787523243057,296.12852811475113 L-23.931071381108154,293.3784606819487 L-24.091956194634882,264.24651193028006 Z" transform="matrix(1,0,0,1,0,0)" fill="#868686" stroke-width="2" stroke-linecap="round" stroke-linejoin="round" stroke="#000000"/>
	</g>
<g>
		<path d="M70.71587034572156,262.50488854942654 L70.71587034572156,285.6250047683715" fill="#969696" stroke-width="2" stroke-linecap="round" stroke-linejoin="round" stroke="#000000"/>
	</g>
<g>
		<path d="M0,364.13085937500017 L176.1376619765037,391.0903470560137" fill="none" stroke-width="2" stroke-linecap="round" stroke-linejoin="round" stroke="#000000"/>
	</g>
<g>
		<path d="M350.58583146594503,330.87643017202595 L176.1376619765037,391.0903470560137" fill="none" stroke-width="2" stroke-linecap="round" stroke-linejoin="round" stroke="#000000"/>
	</g>
<g>
		<path d="M0,406.845703125 L185.5550719515084,436.4679958957416" fill="none" stroke-width="2" stroke-linecap="round" stroke-linejoin="round" stroke="#000000"/>
	</g>
<g>
		<path d="M366.59831912472896,369.3691846770045 L185.55507195150838,436.4679958957416" fill="none" stroke-width="2" stroke-linecap="round" stroke-linejoin="round" stroke="#000000"/>
	</g>
<g>
		<path d="M0,447.8730468750001 L194.35811221705342,478.88531349709046" fill="none" stroke-width="2" stroke-linecap="round" stroke-linejoin="round" stroke="#000000"/>
	</g>
<g>
		<path d="M382.7383328176294,408.16850168675154 L194.35811221705342,478.8853134970904" fill="none" stroke-width="2" stroke-linecap="round" stroke-linejoin="round" stroke="#000000"/>
	</g>
<g>
		<path d="M0,492.4863281249999 L203.6702016704364,523.7554769816676" fill="none" stroke-width="2" stroke-linecap="round" stroke-linejoin="round" stroke="#000000"/>
	</g>
<g>
		<path d="M400.20939949162346,450.16756484001843 L203.6702016704364,523.7554769816676" fill="none" stroke-width="2" stroke-linecap="round" stroke-linejoin="round" stroke="#000000"/>
	</g>
<g>
		<path d="M0.000000000000007105427357601002,534.1464843749999 L213.01739796436,568.7948022512952" fill="none" stroke-width="2" stroke-linecap="round" stroke-linejoin="round" stroke="#000000"/>
	</g>
<g>
		<path d="M418.19057030208455,493.3928780123589 L213.01739796436,568.7948022512951" fill="none" stroke-width="2" stroke-linecap="round" stroke-linejoin="round" stroke="#000000"/>
	</g>
<g>
		<path d="M-0.000000000000007105427357601002,575.8066406249999 L222.11884637449964,612.6499950255707" fill="none" stroke-width="2" stroke-linecap="round" stroke-linejoin="round" stroke="#000000"/>
	</g>
<g>
		<path d="M435.24717736519915,534.3956130251283 L222.11884637449964,612.6499950255707" fill="none" stroke-width="2" stroke-linecap="round" stroke-linejoin="round" stroke="#000000"/>
	</g>
<g>
		<path d="M-0.000000000000014210854715202004,658.7050781249999 L237.88526048553524,697.2659842153244" fill="none" stroke-width="2" stroke-linecap="round" stroke-linejoin="round" stroke="#000000"/>
	</g>
<g>
		<path d="M467.2880934370313,611.4194423481819 L237.88526048553524,697.2659842153244" fill="none" stroke-width="2" stroke-linecap="round" stroke-linejoin="round" stroke="#000000"/>
	</g>
<g>
		<path d="M0.000000000000014210854715202004,697.5175781250001 L248.14830361087854,740.9484183137342" fill="none" stroke-width="2" stroke-linecap="round" stroke-linejoin="round" stroke="#000000"/>
	</g>
<g>
		<path d="M482.54339526824697,648.0919819810983 L248.14830361087854,740.9484183137342" fill="none" stroke-width="2" stroke-linecap="round" stroke-linejoin="round" stroke="#000000"/>
	</g>
<g>
		<path d="M-0.000000000000007105427357601002,618.310546875 L230.8019207943731,655.598832795677" fill="none" stroke-width="2" stroke-linecap="round" stroke-linejoin="round" stroke="#000000"/>
	</g>
<g>
		<path d="M451.66615425773006,573.8655355140563 C336.964737781982,616.7888064476275 230.8019207943731,655.598832795677 230.8019207943731,655.598832795677" fill="none" stroke-width="2" stroke-linecap="round" stroke-linejoin="round" stroke="#000000"/>
	</g>
<g>
		<path d="M46.293753565827,330.4336444003419 L46.18453343817503,371.19982660385966" fill="none" stroke-width="2" stroke-linecap="round" stroke-linejoin="round" stroke="#000000"/>
	</g>
<g>
		<path d="M106.33351019429344,339.9080370057414 L106.33351019429344,380.4061802007324" fill="none" stroke-width="2" stroke-linecap="round" stroke-linejoin="round" stroke="#000000"/>
	</g>
<g>
		<path d="M144.67713621917704,386.27502450048894 L144.67713621917704,429.94218031230594" fill="none" stroke-width="2" stroke-linecap="round" stroke-linejoin="round" stroke="#000000"/>
	</g>
<g>
		<path d="M62.921051514653385,373.7615044860497 L62.92105151465338,416.8905151035002" fill="none" stroke-width="2" stroke-linecap="round" stroke-linejoin="round" stroke="#000000"/>
	</g>
<g>
		<path d="M14.840781633621626,409.2149079862537 L14.840781633621628,450.2410791204878" fill="none" stroke-width="2" stroke-linecap="round" stroke-linejoin="round" stroke="#000000"/>
	</g>
<g>
		<path d="M121.29938004330047,426.21011990306096 L121.29938004330047,467.22787941626325" fill="none" stroke-width="2" stroke-linecap="round" stroke-linejoin="round" stroke="#000000"/>
	</g>
<g>
		<path d="M51.436570713692845,456.0803947798697 L51.436570713692845,500.38329966591056" fill="none" stroke-width="2" stroke-linecap="round" stroke-linejoin="round" stroke="#000000"/>
	</g>
<g>
		<path d="M135.53821087324008,469.4998628855809 L135.53821087324008,513.2952852370454" fill="none" stroke-width="2" stroke-linecap="round" stroke-linejoin="round" stroke="#000000"/>
	</g>
<g>
		<path d="M87.95211247916697,505.989470336346 L87.95211247916696,548.452324086645" fill="none" stroke-width="2" stroke-linecap="round" stroke-linejoin="round" stroke="#000000"/>
	</g>
<g>
		<path d="M172.62242971657398,518.9887639577166 L172.62242971657398,562.2243638090497" fill="none" stroke-width="2" stroke-linecap="round" stroke-linejoin="round" stroke="#000000"/>
	</g>
<g>
		<path d="M25.02538376475831,538.216985000506 L25.02538376475831,579.9576575157537" fill="none" stroke-width="2" stroke-linecap="round" stroke-linejoin="round" stroke="#000000"/>
	</g>
<g>
		<path d="M112.43740585911776,552.4349763790406 L112.43740585911775,594.4568869213623" fill="none" stroke-width="2" stroke-linecap="round" stroke-linejoin="round" stroke="#000000"/>
	</g>
<g>
		<path d="M188.78250844986,564.8528793679081 L188.78250844985996,607.1204214093641" fill="none" stroke-width="2" stroke-linecap="round" stroke-linejoin="round" stroke="#000000"/>
	</g>
<g>
		<path d="M168.95348578232205,603.8313366626996 L168.9534857823221,645.6066190370643" fill="none" stroke-width="2" stroke-linecap="round" stroke-linejoin="round" stroke="#000000"/>
	</g>
<g>
		<path d="M51.16976158178171,584.2942844756783 L51.169761581781714,626.5775175041321" fill="none" stroke-width="2" stroke-linecap="round" stroke-linejoin="round" stroke="#000000"/>
	</g>
<g>
		<path d="M79.46212614849244,631.1484230481784 L79.46212614849244,671.5857903553227" fill="none" stroke-width="2" stroke-linecap="round" stroke-linejoin="round" stroke="#000000"/>
	</g>
<g>
		<path d="M143.77787624485416,641.5392554578124 L143.77787624485416,682.0112937872403" fill="none" stroke-width="2" stroke-linecap="round" stroke-linejoin="round" stroke="#000000"/>
	</g>
<g>
		<path d="M179.31995368045375,687.7726205186733 L179.31995368045375,728.902101563691" fill="none" stroke-width="2" stroke-linecap="round" stroke-linejoin="round" stroke="#000000"/>
	</g>
<g>
		<path d="M56.881060576057905,667.9254275939609 L56.881060576057905,707.4728839469504" fill="none" stroke-width="2" stroke-linecap="round" stroke-linejoin="round" stroke="#000000"/>
	</g>
<g>
		<path d="M26.77772221582234,702.2042068758352 L26.77772221582235,740.9628902783659" fill="none" stroke-width="2" stroke-linecap="round" stroke-linejoin="round" stroke="#000000"/>
	</g>
<g>
		<path d="M94.04917639783396,713.9780362082498 L94.04917639783393,752.4527061249806" fill="none" stroke-width="2" stroke-linecap="round" stroke-linejoin="round" stroke="#000000"/>
	</g>
<g>
		<path d="M164.3619012930452,726.2841478105557 L164.3619012930452,764.4619642946321" fill="none" stroke-width="2" stroke-linecap="round" stroke-linejoin="round" stroke="#000000"/>
	</g>
<g>
		<path d="M206.9364006753244,333.2133511032648 L218.48904374903793,376.47200746874864" fill="none" stroke-width="2" stroke-linecap="round" stroke-linejoin="round" stroke="#000000"/>
	</g>
<g>
		<path d="M277.1594363562758,308.63650313187907 L291.8355129516787,351.15515712157963" fill="none" stroke-width="2" stroke-linecap="round" stroke-linejoin="round" stroke="#000000"/>
	</g>
<g>
		<path d="M248.11456784495,366.24622607604806 L255.19583110434132,388.4247424045682" fill="none" stroke-width="2" stroke-linecap="round" stroke-linejoin="round" stroke="#000000"/>
	</g>
<g>
		<path d="M340.23743225605006,379.1391385370765 L355.0383786260179,418.5668993607651" fill="none" stroke-width="2" stroke-linecap="round" stroke-linejoin="round" stroke="#000000"/>
	</g>
<g>
		<path d="M221.56924133547815,423.1203124531081 L232.6412410324634,464.514055159462" fill="none" stroke-width="2" stroke-linecap="round" stroke-linejoin="round" stroke="#000000"/>
	</g>
<g>
		<path d="M256.73962373836434,503.8853034395133 L268.78883597237336,548.2985858334164" fill="none" stroke-width="2" stroke-linecap="round" stroke-linejoin="round" stroke="#000000"/>
	</g>
<g>
		<path d="M351.8461119571701,480.268207733723 L362.86221105964574,513.7262612920986" fill="none" stroke-width="2" stroke-linecap="round" stroke-linejoin="round" stroke="#000000"/>
	</g>
<g>
		<path d="M317.9482479187217,530.2323142396439 L331.2430494393666,572.5828343978051" fill="none" stroke-width="2" stroke-linecap="round" stroke-linejoin="round" stroke="#000000"/>
	</g>
<g>
		<path d="M378.2912457671165,555.3081365162542 L393.12199966958224,595.7001726650855" fill="none" stroke-width="2" stroke-linecap="round" stroke-linejoin="round" stroke="#000000"/>
	</g>
<g>
		<path d="M286.70255839248216,588.9367775111789 L298.35279293823805,630.7798334742456" fill="none" stroke-width="2" stroke-linecap="round" stroke-linejoin="round" stroke="#000000"/>
	</g>
<g>
		<path d="M282.6232934351581,680.5242318609608 L292.2461692434879,723.478894427521" fill="none" stroke-width="2" stroke-linecap="round" stroke-linejoin="round" stroke="#000000"/>
	</g>
<g>
		<path d="M329.1280423500229,619.4206722304916 L338.3513097819495,649.9465673914383" fill="none" stroke-width="2" stroke-linecap="round" stroke-linejoin="round" stroke="#000000"/>
	</g>
<g>
		<path d="M417.0231880285174,630.2294467892007 L431.30380418670217,668.3907254118214" fill="none" stroke-width="2" stroke-linecap="round" stroke-linejoin="round" stroke="#000000"/>
	</g>
<g>
		<path d="M422.5826586865598,671.8456377402135 L433.74585482358975,707.2082368803021" fill="none" stroke-width="2" stroke-linecap="round" stroke-linejoin="round" stroke="#000000"/>
	</g>
<g>
		<path d="M324.62512588024157,662.2702647590636 L340.8855423879625,670.1420922179865 L340.8855423879625,745.4890161895751 C340.8855423879625,745.4890161895751 324.62512588024157,662.2702647590636 324.62512588024157,662.2702647590636 Z" fill="#868686" stroke-width="2" stroke-linecap="round" stroke-linejoin="round" stroke="#000000"/>
	</g>
<g>
		<path d="M340.88554238796263,670.1420922179864 C361.6184953139757,643.331430626137 385.50391182169665,633.7769340677672 412.5417919111255,641.478602542877 L412.3917941999439,716.114016189575 L340.88554238796263,745.489016189575 L340.88554238796263,670.1420922179864 Z" fill="#868686" stroke-width="2" stroke-linecap="round" stroke-linejoin="round" stroke="#000000"/>
	</g>
<g>
		<path d="M324.62512588024157,662.2702647590635 C350.96630474720536,636.0803654559514 374.4107500393603,626.8303654559514 394.9584617567064,634.5202647590635 L412.54179191112536,641.478602542877 C385.6439703699421,634.5853855429187 361.75855386222116,644.1398821012887 340.8855423879625,670.1420922179864 L324.62512588024157,662.2702647590635 Z" fill="#868686" stroke-width="2" stroke-linecap="round" stroke-linejoin="round" stroke="#000000"/>
	</g>
<g>
		<path d="M330.72500419616705,453.51187914257747 L391.37500190734863,453.51187914257747 L325.3645920753479,482.88687914257747 L259.2187523841858,482.88687914257747 L330.72500419616705,453.51187914257747 Z" fill="#5c4828" stroke-width="2" stroke-linecap="round" stroke-linejoin="round" stroke="#000000"/>
	</g>
<g>
		<path d="M259.2187523841858,482.88687914257736 L325.3645920753479,482.88687914257747 L325.3645920753479,492.36604421978694 L261.06666564941406,492.36604421978694 L259.2187523841858,482.88687914257736 Z" fill="#5c4828" stroke-width="2" stroke-linecap="round" stroke-linejoin="round" stroke="#000000"/>
	</g>
<g>
		<path d="M391.19792222976685,453.51187914257747 L325.3645920753479,482.88687914257747 L325.3645920753479,492.36604421978694 L391.37500190734863,462.2098013723442 L391.19792222976685,453.51187914257747 Z" fill="#5c4828" stroke-width="2" stroke-linecap="round" stroke-linejoin="round" stroke="#000000"/>
	</g>
<g>
		<path d="M242.80729651451108,399.6681277120659 L259.06771302223206,407.53995517098883 L259.06771302223206,482.88687914257736 C259.06771302223206,482.88687914257736 242.80729651451108,399.6681277120659 242.80729651451108,399.6681277120659 Z" fill="#868686" stroke-width="2" stroke-linecap="round" stroke-linejoin="round" stroke="#000000"/>
	</g>
<g>
		<path d="M259.0677130222321,407.5399551709887 C279.8006659482452,380.7292935791393 303.68608245596613,371.1747970207695 330.72396254539495,378.87646549587924 L330.57396483421337,453.51187914257724 L259.0677130222321,482.88687914257724 L259.0677130222321,407.5399551709887 Z" fill="#868686" stroke-width="2" stroke-linecap="round" stroke-linejoin="round" stroke="#000000"/>
	</g>
<g>
		<path d="M242.80729651451105,399.66812771206577 C269.14847538147484,373.4782284089538 292.5929206736298,364.2282284089538 313.1406323909759,371.91812771206577 L330.72396254539484,378.87646549587924 C303.8261410042116,371.9832484959211 279.94072449649065,381.5377450542909 259.067713022232,407.5399551709887 L242.80729651451105,399.66812771206577 Z" fill="#868686" stroke-width="2" stroke-linecap="round" stroke-linejoin="round" stroke="#000000"/>
	</g>
<g>
		<path d="M268.066665649414,413.40000305175784 C285.12639232124894,391.3393462663875 301.01904632777,382.0827994281163 323.266665649414,388.41997482089937 L322.9903916439973,456.62723558788974 L267.20992880472915,479.5420305097648 L268.066665649414,413.40000305175784 Z" transform="matrix(1,0,0,1,0,0)" fill="#362407" stroke-width="2" stroke-linecap="round" stroke-linejoin="round" stroke="#000000"/>
	</g>
<g>
		<path d="M349.95728637970285,675.9283078886647 C367.0170130515378,653.8676511032943 382.90966705805886,644.6111042650232 405.15728637970284,650.9482796578062 L404.8810123742862,719.1555404247966 L349.100549535018,742.0703353466716 L349.95728637970285,675.9283078886647 Z" transform="matrix(1,0,0,1,0,0)" fill="#362407" stroke-width="2" stroke-linecap="round" stroke-linejoin="round" stroke="#000000"/>
	</g>
<g>
		<path d="M328.68301186984945,548.1069119137323 C343.48615353361464,549.4020189938801 355.51075750529304,562.1638744333071 355.51075750529304,576.5795179448031 C355.51075750529304,590.9951614562992 343.48615353361464,601.652983833905 328.68301186984945,600.3578767537572 C313.87987020608426,599.0627696736094 301.85526623440586,586.3009142341824 301.85526623440586,571.8852707226864 C301.85526623440586,557.4696272111903 313.87987020608426,546.8118048335846 328.68301186984945,548.1069119137323 Z" fill="#5c4828" stroke-width="2" stroke="#000000"/>
	</g>
<g>
		<path d="M331.24304943936664,546.4573519777929 C346.04619110313183,547.7524590579407 358.07079507481023,560.5143144973676 358.07079507481023,574.9299580088637 C358.07079507481023,589.3456015203598 346.04619110313183,600.0034238979655 331.24304943936664,598.7083168178177 C316.43990777560145,597.41320973767 304.41530380392305,584.651354298243 304.41530380392305,570.235710786747 C304.41530380392305,555.8200672752508 316.43990777560145,545.1622448976451 331.24304943936664,546.4573519777929 Z" transform="matrix(1,0,0,1,0,0)" fill="#5c4828" stroke-width="2" stroke="#000000"/>
	</g>
<g>
		<path d="M355.66064141913614,555.9661427288305 C348.675223459301,553.2822668269506 346.59113415868023,556.3552329332067 340.41168717149804,559.8892326169087 C334.23224018431586,563.4232323006106 333.7358399407315,559.2555889552929 333.4660764055539,562.5065838810685 C333.2752260027579,564.8065748367159 334.7819643405389,570.0365100951813 338.9924371033122,573.8619485111897 C340.21789410008466,574.9753413620039 343.3736341320874,573.4191185486827 344.95203798720246,572.7762166100993 C348.25971559266975,571.4289616994675 347.56465097033805,566.6376500224578 354.83449523840727,568.73549607036 C363.65093662599264,571.2796409020099 375.89496583302395,578.5267845954165 376.29523249271716,576.1411140864526 C376.6903461676951,573.786156411972 366.6677814384577,560.1952093382066 355.66064141913614,555.9661427288305 Z" transform="matrix(1,0,0,1,0,0)" fill="#655a48" stroke-width="2" stroke-linecap="round" stroke-linejoin="round" stroke="#000000"/>
	</g>
<g>
		<path d="M341.23403752605157,586.4166679382324 C343.5437177611931,568.0663949678968 335.69996723425527,566.9150582760774 341.2340375260515,554.8266662597656 C343.30567286125597,550.3014725548866 353.3333325386047,553.0729174613955 353.3333325386047,553.0729174613955 C353.3333325386047,553.0729174613955 345.80749171806286,537.6900452364731 336.14352653010104,543.7075125754147 C327.80920707860275,548.8970485594816 325.3902174088463,559.5661778949965 322.9921137704242,570.303898452224 C322.10407611212224,574.2801653934707 340.1126173928762,595.3262846224391 341.23403752605157,586.4166679382324 Z" transform="matrix(1,0,0,1,0,0)" fill="#655a48" stroke-width="2" stroke-linecap="round" stroke-linejoin="round" stroke="#000000"/>
	</g>
<g>
		<path d="M307.03503804184913,570.7604167934431 C311.76646266767716,564.9627556322172 315.10115226517973,566.5956653637911 322.21977002650107,566.5956653637911 C329.33838778782246,566.5956653637911 327.7002929124605,562.731430713189 329.5484051366615,565.4195939483905 C330.8558945353629,567.321396710138 332.1443159922868,572.6093503195806 330.38845614766194,578.0203591133974 C329.8774135989554,579.5952318081236 326.36543697633425,579.8109742389261 324.6761092728588,580.0364815397985 C321.13598144374004,580.5090509944079 319.36072402882866,576.0048037180842 314.091466534253,581.4349528116667 C307.70121962606726,588.0203196289033 300.6703707236213,600.3898186748023 299.1385585384448,598.5176037818087 C297.62646671864394,596.6694915576078 299.57958531922,579.8959715380731 307.03503804184913,570.7604167934431 Z" transform="matrix(1,0,0,1,0,0)" fill="#655a48" stroke-width="2" stroke-linecap="round" stroke-linejoin="round" stroke="#000000"/>
	</g>
<g>
		<path d="M255.19583110434132,388.4247424045682 L270.30612849885676,394.9889648177193" fill="none" stroke-width="2" stroke-linecap="round" stroke-linejoin="round" stroke="#000000"/>
	</g>
<g>
		<path d="M245.64611967105373,414.1968649376668 L259.06771302223206,421.16715274866283" fill="none" stroke-width="2" stroke-linecap="round" stroke-linejoin="round" stroke="#000000"/>
	</g>
<g>
		<path d="M253.91719652531037,456.52718830116817 L259.06771302223206,458.8406147344571" fill="none" stroke-width="2" stroke-linecap="round" stroke-linejoin="round" stroke="#000000"/>
	</g>
<g>
		<path d="M338.3513097819495,649.9465673914383 L352.7904462178596,656.964602133615" fill="none" stroke-width="2" stroke-linecap="round" stroke-linejoin="round" stroke="#000000"/>
	</g>
<g>
		<path d="M333.3994018114127,707.1758972409948 L340.8855423879625,710.832374401862" fill="none" stroke-width="2" stroke-linecap="round" stroke-linejoin="round" stroke="#000000"/>
	</g>
<g>
		<path d="M412.4546643343571,684.8312822665645 L405.00927473969153,687.4897867444965" fill="none" stroke-width="2" stroke-linecap="round" stroke-linejoin="round" stroke="#000000"/>
	</g>
<g>
		<path d="M283.6172290070607,472.80185840969756 L346.42611449584365,473.4891740644524" fill="none" stroke-width="2" stroke-linecap="round" stroke-linejoin="round" stroke="#000000"/>
	</g>
<g>
		<path d="M309.7226300773212,462.07767504101486 L370.0118673191406,463.018593009765" fill="none" stroke-width="2" stroke-linecap="round" stroke-linejoin="round" stroke="#000000"/>
	</g>
<g>
		<path d="M370.0118673191406,463.01859300976497 L370.0118673191406,471.96935105949507" fill="none" stroke-width="2" stroke-linecap="round" stroke-linejoin="round" stroke="#000000"/>
	</g>
<g>
		<path d="M346.42611449584365,473.48917406445247 L346.42611449584365,482.7442832510885" fill="none" stroke-width="2" stroke-linecap="round" stroke-linejoin="round" stroke="#000000"/>
	</g>
<g>
		<path d="M259.0677130222321,407.5399551709887 L325.3645920753479,482.88687914257747" fill="none" stroke-width="2" stroke-linecap="round" stroke-linejoin="round" stroke="#000000"/>
	</g>
<g>
		<path d="M330.72396254539495,378.87646549587924 L391.37500190734863,453.51187914257747" fill="none" stroke-width="2" stroke-linecap="round" stroke-linejoin="round" stroke="#000000"/>
	</g>
<g>
		<g transform="matrix(1,0,0,1,-983.666174183,-64.287494949)">
			<path d="M1441.0560859162067,783.3174554840912 C1448.562119161259,783.3174554840912 1454.6592760499848,785.9099005752231 1454.6592760499848,789.1013846382283 C1454.6592760499848,792.2928687012335 1448.562119161259,794.8853137923654 1441.0560859162067,794.8853137923654 C1433.5500526711544,794.8853137923654 1427.4528957824286,792.2928687012335 1427.4528957824286,789.1013846382283 C1427.4528957824286,785.9099005752231 1433.5500526711544,783.3174554840912 1441.0560859162067,783.3174554840912 Z" transform="matrix(1,0,0,1,0,0)" fill="#595959" stroke-width="2" stroke="#595959"/>
		</g>
		<g transform="matrix(1,0,0,1,-983.666174183,-64.287494949)">
			<path d="M1443.3560894059242,723.4156088667166 L1438.756082426491,723.4156088667166 L1438.756082426491,788.4030634102012 C1440.3150409896846,789.3341583809053 1441.8483766494958,789.3341583809053 1443.3560894059242,788.4030634102012 L1443.3560894059242,723.4156088667166 Z" fill="#74592e" stroke-width="2" stroke-linecap="round" stroke-linejoin="round" stroke="#000000"/>
		</g>
		<g transform="matrix(1,0,0,1,-983.666174183,-64.287494949)">
			<path d="M1434.2966912704808,707.6162638216973 C1434.2966912704808,702.5038277628499 1447.815480561935,702.5038277628499 1447.815480561935,707.6162638216974 L1444.0690067250634,723.690589940413 C1442.0909669086964,725.2489697713428 1440.1000416937413,725.2489697713428 1438.096231080198,723.6905899404131 L1434.2966912704808,707.6162638216973 Z" transform="matrix(1,0,0,1,0,0)" fill="#74592e" stroke-width="2" stroke-linecap="round" stroke-linejoin="round" stroke="#000000"/>
		</g>
		<g transform="matrix(1,0,0,1,-983.666174183,-64.287494949)">
			<path d="M1434.2966912704808,707.6162638216972 C1434.2966912704808,711.4673270409157 1446.6300728244873,712.7022810701973 1447.815480561935,707.6162638216973" fill="none" stroke-width="2" stroke-linecap="round" stroke-linejoin="round" stroke="#000000"/>
		</g>
		<g transform="matrix(1,0,0,1,-983.666174183,-64.287494949)">
			<path d="M1429.1015925190707,700.4951376430239 L1453.0106209149583,700.4951376853899 L1451.0887854157263,707.6162638216972 C1451.0523502313301,713.0855814449994 1431.2548514356502,713.1364773137835 1431.2912870438904,707.6162638216972 L1429.1015925190707,700.4951376430239 Z" transform="matrix(1,0,0,1,0,0)" fill="#74592e" stroke-width="2" stroke-linecap="round" stroke-linejoin="round" stroke="#000000"/>
		</g>
		<g transform="matrix(1,0,0,1,-983.666174183,-64.287494949)">
			<path d="M1441.056106717015,695.7146480651959 C1447.6524256771836,695.7146480651959 1453.010620914959,697.8573362636471 1453.010620914959,700.4951376430238 C1453.010620914959,703.1329390224005 1447.6524256771836,705.2756272208517 1441.056106717015,705.2756272208517 C1434.4597877568463,705.2756272208517 1429.101592519071,703.1329390224005 1429.101592519071,700.4951376430238 C1429.101592519071,697.8573362636471 1434.4597877568463,695.7146480651959 1441.056106717015,695.7146480651959 Z" transform="matrix(1,0,0,1,0,0)" fill="#74592e" stroke-width="2" stroke-linecap="round" stroke-linejoin="round" stroke="#000000"/>
		</g>
		
		
	</g>
<g>
		<g transform="matrix(1,0,0,1,-1114.195417253,-11.178498344)">
			<path d="M1441.0560859162067,783.3174554840912 C1448.562119161259,783.3174554840912 1454.6592760499848,785.9099005752231 1454.6592760499848,789.1013846382283 C1454.6592760499848,792.2928687012335 1448.562119161259,794.8853137923654 1441.0560859162067,794.8853137923654 C1433.5500526711544,794.8853137923654 1427.4528957824286,792.2928687012335 1427.4528957824286,789.1013846382283 C1427.4528957824286,785.9099005752231 1433.5500526711544,783.3174554840912 1441.0560859162067,783.3174554840912 Z" transform="matrix(1,0,0,1,0,0)" fill="#595959" stroke-width="2" stroke="#595959"/>
		</g>
		<g transform="matrix(1,0,0,1,-1114.195417253,-11.178498344)">
			<path d="M1443.3560894059242,723.4156088667166 L1438.756082426491,723.4156088667166 L1438.756082426491,788.4030634102012 C1440.3150409896846,789.3341583809053 1441.8483766494958,789.3341583809053 1443.3560894059242,788.4030634102012 L1443.3560894059242,723.4156088667166 Z" fill="#74592e" stroke-width="2" stroke-linecap="round" stroke-linejoin="round" stroke="#000000"/>
		</g>
		<g transform="matrix(1,0,0,1,-1114.195417253,-11.178498344)">
			<path d="M1434.2966912704808,707.6162638216973 C1434.2966912704808,702.5038277628499 1447.815480561935,702.5038277628499 1447.815480561935,707.6162638216974 L1444.0690067250634,723.690589940413 C1442.0909669086964,725.2489697713428 1440.1000416937413,725.2489697713428 1438.096231080198,723.6905899404131 L1434.2966912704808,707.6162638216973 Z" transform="matrix(1,0,0,1,0,0)" fill="#74592e" stroke-width="2" stroke-linecap="round" stroke-linejoin="round" stroke="#000000"/>
		</g>
		<g transform="matrix(1,0,0,1,-1114.195417253,-11.178498344)">
			<path d="M1434.2966912704808,707.6162638216972 C1434.2966912704808,711.4673270409157 1446.6300728244873,712.7022810701973 1447.815480561935,707.6162638216973" fill="none" stroke-width="2" stroke-linecap="round" stroke-linejoin="round" stroke="#000000"/>
		</g>
		<g transform="matrix(1,0,0,1,-1114.195417253,-11.178498344)">
			<path d="M1429.1015925190707,700.4951376430239 L1453.0106209149583,700.4951376853899 L1451.0887854157263,707.6162638216972 C1451.0523502313301,713.0855814449994 1431.2548514356502,713.1364773137835 1431.2912870438904,707.6162638216972 L1429.1015925190707,700.4951376430239 Z" transform="matrix(1,0,0,1,0,0)" fill="#74592e" stroke-width="2" stroke-linecap="round" stroke-linejoin="round" stroke="#000000"/>
		</g>
		<g transform="matrix(1,0,0,1,-1114.195417253,-11.178498344)">
			<path d="M1441.056106717015,695.7146480651959 C1447.6524256771836,695.7146480651959 1453.010620914959,697.8573362636471 1453.010620914959,700.4951376430238 C1453.010620914959,703.1329390224005 1447.6524256771836,705.2756272208517 1441.056106717015,705.2756272208517 C1434.4597877568463,705.2756272208517 1429.101592519071,703.1329390224005 1429.101592519071,700.4951376430238 C1429.101592519071,697.8573362636471 1434.4597877568463,695.7146480651959 1441.056106717015,695.7146480651959 Z" transform="matrix(1,0,0,1,0,0)" fill="#74592e" stroke-width="2" stroke-linecap="round" stroke-linejoin="round" stroke="#000000"/>
		</g>
		
		
	</g>
<g>
		<g transform="matrix(-0.999949067,0.010092786,0.010092786,0.999949067,1631.986640798,229.588723755)">
			<path d="M1188.5154327866148,260.99430739357143 C1222.0498573197292,260.3172924037482 1249.48417514023,269.39045892953857 1249.7233446566286,281.2371864301897 C1249.9625141730273,293.08391393084077 1222.9167515365698,303.2569601065627 1189.3823270034554,303.93397509638595 C1155.847902470341,304.6109900862092 1128.4135846498402,295.5378235604188 1128.1744151334417,283.6910960597677 C1127.935245617043,271.8443685591166 1154.9810082535005,261.6713223833947 1188.5154327866148,260.99430739357143 Z" transform="matrix(1,0,0,1,0,0)" fill="#595959" stroke-width="2" stroke="#595959"/>
		</g>
		<g transform="matrix(-0.999949067,0.010092786,0.010092786,0.999949067,1631.986640798,229.588723755)">
			<path d="M1145.0040535170815,165.0584011892023 C1139.7728662470938,152.21011793811573 1136.5722722414216,147.5056139668388 1140.1607152322886,140.9727228484075 C1141.3391228558996,138.8273888643446 1147.1586958527232,154.45287564381738 1152.379453953901,162.58383986482036 C1155.48349483805,167.4181656237273 1158.9966106458287,174.45574267816647 1162.7303760887726,170.87979276455934 C1167.5672049818368,166.24740272115912 1172.6482852789259,153.75805877290045 1174.2917538820018,147.17856204619702 C1175.8918927694963,140.7725324129953 1178.9193484280336,153.43198207209866 1176.6058581583552,158.4724498434901 C1170.75231437704,171.2257339894615 1170.230075495001,175.29044764446704 1170.9751597746922,181.9503064274727 C1171.6114530277641,187.63774786939433 1172.5651427779706,191.19374448054455 1180.7905914211829,197.11125331687785 C1186.698818300706,201.3617187058375 1190.7825823153996,204.8708777413741 1194.1909832422639,203.1304182586627 C1199.0868181650544,200.63041825866273 1198.7939130967031,193.99011606871366 1196.0053902713378,178.14432517553445 C1194.7343874274497,170.92184698540188 1201.2295536724982,154.09037366135794 1201.228108193837,167.15771641292113 C1201.2246100612606,198.78135679450097 1224.0353113610925,172.56014645226804 1225.8373966809972,163.82583874660506 C1228.125580983518,152.73551712601795 1236.3323670048399,145.54286051676632 1227.7169258129893,175.82414925945164 C1226.0428876655662,181.70800725111624 1212.8840416026435,185.92446582714103 1208.9325455593134,194.56243552887 C1203.8499709814014,205.6729427214281 1194.6966071871518,242.92339757426765 1207.7999702184625,273.0208819553145 C1210.3904115686653,278.97093980622276 1221.3135644011986,274.6915865404949 1224.273195292108,281.0407014531452 C1224.821302169039,282.2165215720446 1213.7353089668538,281.4873430646449 1211.6038075067586,281.0407014531452 C1206.665344680912,280.00588020804554 1203.8547216356865,278.77022725358444 1199.0833055227226,282.166708485771 C1196.7517037040652,283.82643415850885 1203.2183184334203,288.37713964820875 1202.3333055227226,291.8333745166547 C1201.5479004997142,294.90061138242424 1196.2917582842367,287.31567999228025 1191.9166375844902,286.2917084857709 C1187.9583055227226,285.3652839314068 1181.967091565814,286.89502557893314 1179.8279742592752,289.8875430270918 C1179.4700849480855,290.3882121605566 1177.106619721892,294.25722562182074 1175.7499715536064,293.4167103931196 C1171.5747938815368,290.8299671991623 1180.6122574686692,286.7939199338582 1175.7666373937552,285.8875430270918 C1171.1333030431692,285.0208743259198 1165.6195576070404,289.5586062424903 1165.0680834062453,287.56052858037054 C1163.738018759534,282.74149542172586 1174.1298481092936,282.50928218786277 1172.2623868046635,279.68912873064767 C1170.888712412369,277.6146693686722 1154.0855179228324,281.41211809740247 1154.132667477696,280.13879971226265 C1154.3743244269217,273.6126249215319 1175.6517553276385,274.8965167399687 1177.7999702184622,268.88754455297067 C1182.596703175074,255.47015551621342 1188.5724974205928,244.41425601908958 1174.064091027458,207.60940718814413 C1170.7483572102483,199.1980711255012 1147.3475120124356,170.81415356079427 1145.0040535170815,165.0584011892023 Z" fill="#5c4828" stroke-width="2" stroke-linecap="round" stroke-linejoin="round" stroke="#000000"/>
		</g>
		<g transform="matrix(-0.999949067,0.010092786,0.010092786,0.999949067,1631.986640798,229.588723755)">
			<path d="M1171.0431092329645,281.85362851964305 C1174.6023285277759,280.3322098404394 1177.9018699661704,279.85721862322566 1178.9948521642386,276.67935759011937" fill="none" stroke-width="2" stroke-linecap="round" stroke-linejoin="round" stroke="#000000"/>
		</g>
		<g transform="matrix(-0.999949067,0.010092786,0.010092786,0.999949067,1631.986640798,229.588723755)">
			<path d="M1198.9313678387746,284.3476608647776 C1197.0323358067471,280.86442515709507 1197.4190002621522,279.1289225104785 1198.0839407826695,277.5489229951972" fill="none" stroke-width="2" stroke-linecap="round" stroke-linejoin="round" stroke="#000000"/>
		</g>
		<g transform="matrix(-0.999949067,0.010092786,0.010092786,0.999949067,1631.986640798,229.588723755)">
			<path d="M1193.279995945961,203.469731914472 C1187.0352936835716,204.10818601534837 1183.6040855239662,203.73921342344815 1180.7905914211826,200.69903252905218" transform="matrix(1,0,0,1,0,0)" fill="none" stroke-width="2" stroke-linecap="round" stroke-linejoin="round" stroke="#000000"/>
		</g>
		<g transform="matrix(-0.999949067,0.010092786,0.010092786,0.999949067,1631.986640798,229.588723755)">
			<path d="M1157.9805034147512,170.5596468556201 C1160.4008164059153,173.2743035282492 1164.5169356030708,172.9296754955242 1165.7036217925602,171.5164798397916" fill="none" stroke-width="2" stroke-linecap="round" stroke-linejoin="round" stroke="#000000"/>
		</g>
		<g transform="matrix(-0.999949067,0.010092786,0.010092786,0.999949067,1631.986640798,229.588723755)">
			<path d="M1215.5069856476,180.68095986397088 C1211.115095968698,181.6210703287246 1205.9485364249092,183.19422719396573 1204.1187119003341,180.24181856891497" transform="matrix(1,0,0,1,0,0)" fill="none" stroke-width="2" stroke-linecap="round" stroke-linejoin="round" stroke="#000000"/>
		</g>
	</g>
<g>
		<g transform="matrix(-0.999949067,0.010092786,0.010092786,0.999949067,1371.215754732,-105.220204265)">
			<path d="M543.1433547518052,274.08436298474487 C572.4327584622824,273.530971526428 596.383367169029,281.48639777822086 596.5788641217617,291.83348407075425 C596.7743610744944,302.1805703632876 573.1413570340646,311.03503727532876 543.8519533235874,311.5884287336456 C514.5625496131101,312.1418201919625 490.61194090636354,304.18639394016964 490.41644395363085,293.83930764763625 C490.22094700089815,283.4922213551029 513.853951041328,274.63775444306174 543.1433547518052,274.08436298474487 Z" fill="#595959" stroke-width="2" stroke="#595959"/>
		</g>
		<g transform="matrix(-0.999949067,0.010092786,0.010092786,0.999949067,1371.215754732,-105.220204265)">
			<path d="M507.62427732624667,187.79992471598695 C501.6867749420609,151.23742233180116 513.4576098648514,178.9457548704059 514.6034424034561,187.0707548704059 C515.6589210503018,194.55506319356127 525.6095288007888,199.38754001819783 530.6451074806656,206.966594561568 C538.0003750886985,218.03701524730513 543.6950414765919,216.10288419869832 547.1034424034561,214.36242471598695 C551.9992773262467,211.86242471598695 551.246130306031,210.2082156091662 548.4576074806656,194.36242471598695 C547.1866046367774,187.1399465258544 551.7042357922833,174.54257627395802 552.9367773262467,186.54992471598695 C556.1659424034561,218.00826440714908 569.3951074806656,201.54992471598695 572.8326074806656,193.3207548704059 C575.8821938603246,186.02022708073756 579.4827519734031,148.93542204579558 580.7492773262467,181.9665897931964 C581.451722470398,200.28646261509857 540.5928882872282,239.80266817456635 559.38098667167,279.5655693287383 C562.9498914877001,287.11875574093887 576.2564275302675,291.91054905157404 571.9232373250949,291.91054905157404 C570.4837662157776,291.91054905157404 570.9864010018493,292.69207685792304 568.953668483436,291.91054905157404 C562.5613254068217,289.45287505027665 564.6982203240194,289.2881143205167 550.6643219759303,288.7113958591948 C547.804733396625,288.59388200206365 557.4976540376978,298.3363977665434 553.9143219759303,298.3780618900786 C550.7483390396513,298.41487341128106 547.8727747374444,293.86036736570406 543.4976540376978,292.8363958591948 C539.5393219759303,291.9099713048306 533.5481080190216,293.43971295235696 531.4089907124828,296.43223040051566 C531.0511014012933,296.93289953398045 528.7976534654933,300.59056589551074 527.3309880068141,299.9613977665434 C522.919742484621,298.0690677364134 532.193273921877,293.3386073072821 527.3476538469629,292.43223040051566 C522.7143194963768,291.5655616993437 519.4677777054712,292.7956785798495 516.6162771786044,294.10521595379436 C512.0737472339353,296.19135014130717 512.8968415477225,295.19963955363386 510.27989967019846,294.1052159537944 C507.2737591786681,292.8480267412175 527.2327717808463,281.4412041133926 529.38098667167,275.43223192639454 C534.1777196282818,262.0148428896373 540.1535138738004,250.95894339251345 525.6451074806656,214.154094561568 C522.3293736634561,205.74275849892507 508.6204266215462,193.9341051554595 507.62427732624667,187.79992471598695 Z" fill="#5e4927" stroke-width="2" stroke-linecap="round" stroke-linejoin="round" stroke="#000000"/>
		</g>
		<g transform="matrix(-0.999949067,0.010092786,0.010092786,0.999949067,1371.215754732,-105.220204265)">
			<path d="M528.6036588768308,294.1052159537944 C531.096532430669,290.4381620265689 536.347653846963,285.0655616993437 536.347653846963,281.06556169934373" fill="none" stroke-width="2" stroke-linecap="round" stroke-linejoin="round" stroke="#000000"/>
		</g>
		<g transform="matrix(-0.999949067,0.010092786,0.010092786,0.999949067,1371.215754732,-105.220204265)">
			<path d="M551.5127695795383,291.9105490515741 C549.3600112329462,288.045381705722 548.3695825510949,287.03669680707054 548.9143219759301,284.0030618900786" fill="none" stroke-width="2" stroke-linecap="round" stroke-linejoin="round" stroke="#000000"/>
		</g>
		<g transform="matrix(-0.999949067,0.010092786,0.010092786,0.999949067,1371.215754732,-105.220204265)">
			<path d="M555.4309874346093,207.51556398816206 C557.761541338177,207.50723001904583 563.2506633309706,205.2745762264628 565.5961365904334,203.31277168912212" transform="matrix(1,0,0,1,0,0)" fill="none" stroke-width="2" stroke-linecap="round" stroke-linejoin="round" stroke="#000000"/>
		</g>
		<g transform="matrix(-0.999949067,0.010092786,0.010092786,0.999949067,1371.215754732,-105.220204265)">
			<path d="M536.9935536559055,213.9097709169291 C542.1895785842622,217.11660348760543 547.2143225481349,219.73223040051556 550.6143225481349,219.73223040051556" fill="none" stroke-width="2" stroke-linecap="round" stroke-linejoin="round" stroke="#000000"/>
		</g>
	</g>
<g>
		<g transform="matrix(-0.999949067,0.010092786,0.010092786,0.999949067,1732.240533886,747.351062177)">
			<path d="M875.3630790999804,264.15504806763437 C841.8218212514204,264.15504806763437 814.5762303152663,273.7801153204241 814.5762303152663,285.6292568307723 C814.5762303152663,297.4783983411205 841.8218212514204,307.10346559391024 875.3630790999804,307.10346559391024 C908.9043369485404,307.10346559391024 936.1499278846944,297.4783983411205 936.1499278846944,285.6292568307723 C936.1499278846944,273.7801153204241 908.9043369485404,264.15504806763437 875.3630790999804,264.15504806763437 Z" transform="matrix(1,0,0,1,0,0)" fill="#595959" stroke-width="2" stroke="#595959"/>
		</g>
		<g transform="matrix(-0.999949067,0.010092786,0.010092786,0.999949067,1732.240533886,747.351062177)">
			<path d="M916.9291713490553,167.3604294138471 C921.8999561396045,154.4091745974257 925.0049398258554,149.6410265383759 921.2853644764166,143.18189744198617 C920.0638943403355,141.06078614428836 914.5609002803834,156.80055499065233 909.5053256011071,165.0352413220498 C906.4994957593065,169.9312358395959 903.1291459565485,177.03828977797858 899.3239622707912,173.5384327401562 C894.3946160984252,169.00461563224866 889.0624792524263,156.62037540933176 887.2865413308131,150.0753917787507 C885.5574256514318,143.70296531090912 882.7861119891317,156.42094368881692 885.2008704772977,161.4136878266796 C891.3106409470685,174.04622265205722 891.9148178250873,178.09956705479047 891.3043115520559,184.77310822001976 C890.7829463413323,190.47223425619757 889.9012270545866,194.0467562015129 881.7968963875755,200.12908640053644 C875.9756668882109,204.49794071241152 871.9635656277079,208.0888137455145 868.5207287090425,206.4175058622438 C863.5754298485053,204.01683537856923 863.7342437729709,197.37197385327735 866.2023584352047,181.47312614056523 C867.3273199116561,174.22646476358528 860.4937413067428,157.52952246089728 860.7589448436886,170.59417384393203 C861.4007510195687,202.21130097548874 838.0654337433496,176.45585624587946 836.0874175429853,167.7597022391638 C833.575846326122,156.71782599130682 825.2255517695755,149.69228496464657 834.4504517496115,179.7935057904943 C836.2429118371284,185.64237537527404 849.4841843590223,189.59236963248162 853.6092288475847,198.14882038707722 C858.9150284790217,209.15447460147843 868.8184109101541,246.21258399626618 856.3252214026671,276.56842206289997 C853.8554070032046,282.5695545935315 842.8481027362968,278.51155201202795 840.0172287953786,284.91911222751514 C839.4929669762757,286.1057560854516 850.5619835083872,285.15296041670206 852.6840354633583,284.66338641421106 C857.6006047880027,283.5290953723957 860.385714137525,282.2369630117509 865.2247146006541,285.5364434256164 C867.5893422108222,287.1487686455215 861.2158988307117,291.8290726946642 862.1704939631745,295.2667398471154 C863.0176497536867,298.31749878670803 868.1196227621224,290.628019831427 872.4731837266265,289.51594712164604 C876.4120099056745,288.50981417944 882.432880417968,289.91831425392655 884.6319645246626,292.86704493344797 C884.9998867016218,293.360388233767 887.4409646940815,297.1809079986157 888.7803710577663,296.31318068251244 C892.9024858950654,293.6426904254716 883.7853977252539,289.7898824987259 888.6117358040743,288.78588361602846 C893.2266328992695,287.8258697397374 898.8308470762894,292.25138475374223 899.3418786397992,290.2425829021149 C900.5744023281204,285.39768477044333 890.1800029736062,285.3752731802611 891.9901603117306,282.5180004145336 C893.3216828312281,280.4162366883732 910.1981037988857,283.873746951979 910.1252624989578,282.6016396705425 C909.7519269209429,276.08167218393135 888.5047456133746,277.79477767383867 886.2356800128864,271.83039042434234 C881.1691004108793,258.5125547609448 874.9713653177031,247.57952634837366 888.7339268475599,210.489330154851 C891.8792061731768,202.0127811477873 914.7023675194887,173.16231081449297 916.9291713490553,167.3604294138471 Z" transform="matrix(1,0,0,1,0,0)" fill="#5c4828" stroke-width="2" stroke-linecap="round" stroke-linejoin="round" stroke="#000000"/>
		</g>
		<g transform="matrix(-0.999949067,0.010092786,0.010092786,0.999949067,1732.240533886,747.351062177)">
			<path d="M893.2528789225504,284.6574486712809 C889.6636756006649,283.20818116659024 886.355218892367,282.79988645754736 885.1983156907236,279.6447341929083" transform="matrix(1,0,0,1,0,0)" fill="none" stroke-width="2" stroke-linecap="round" stroke-linejoin="round" stroke="#000000"/>
		</g>
		<g transform="matrix(-0.999949067,0.010092786,0.010092786,0.999949067,1732.240533886,747.351062177)">
			<path d="M865.4206428594703,287.71388468927785 C867.2489804803694,284.1930275212085 866.8273644703228,282.46568309187217 866.1306678477465,280.8994269888655" transform="matrix(1,0,0,1,0,0)" fill="none" stroke-width="2" stroke-linecap="round" stroke-linejoin="round" stroke="#000000"/>
		</g>
		<g transform="matrix(-0.999949067,0.010092786,0.010092786,0.999949067,1732.240533886,747.351062177)">
			<path d="M869.4383793024905,206.7383625271085 C875.6946962448642,207.25064008994335 879.1177578255757,206.81248529677856 881.8693140744074,203.71613467926704" transform="matrix(1,0,0,1,0,0)" fill="none" stroke-width="2" stroke-linecap="round" stroke-linejoin="round" stroke="#000000"/>
		</g>
		<g transform="matrix(-0.999949067,0.010092786,0.010092786,0.999949067,1732.240533886,747.351062177)">
			<path d="M904.06640526049,173.1224780408434 C901.7013794630892,175.88543457381243 897.579142677735,175.6239587401202 896.3641735405487,174.23500371226962" transform="matrix(1,0,0,1,0,0)" fill="none" stroke-width="2" stroke-linecap="round" stroke-linejoin="round" stroke="#000000"/>
		</g>
		<g transform="matrix(-0.999949067,0.010092786,0.010092786,0.999949067,1732.240533886,747.351062177)">
			<path d="M846.7559369068953,184.40287485083513 C851.165907532907,185.25414549833812 856.363167954183,186.72269721877797 858.1330266697086,183.73395591062015" transform="matrix(1,0,0,1,0,0)" fill="none" stroke-width="2" stroke-linecap="round" stroke-linejoin="round" stroke="#000000"/>
		</g>
	</g>
</g>
</svg>
