<svg xmlns="http://www.w3.org/2000/svg" xmlns:graphite="https://graphite.art" viewBox="0 0 1920 1080" width="1920" height="1080"><defs><clipPath id="artboard-825928912787916164"><rect x="0" y="0" width="1920" height="1080" /></clipPath></defs><g>
<rect fill="#5c7f49" x="0" y="0" width="1920" height="1080"/>
<g clip-path="url(#artboard-825928912787916164)">
	<g>
		<path d="M667.8314619640031,1160.4090809791974 C686.3555647037234,1160.679506641309 896.7195664165183,1166.771694364041 922.8843805836859,1166.430709245307 C945.0217116722089,1166.1422110957906 849.841517744647,1035.7132558299768 847.0142431982391,969.7435164137933 C841.0142431982391,829.7435164137949 898.0837887165942,826.2694297745553 909.9703555237813,627.5205222176645 C915.0868396248921,541.9705360759048 877.5261225713116,427.5597183636579 837.3286874558479,341.7966278171266 C790.2833161671107,241.42314811520862 708.5361580490759,193.1320142250193 583.8899295999961,122.25738895456976 C516.1739002743274,83.75363105530721 493.4806591463346,62.47785257938102 453.13492707771593,-68.22525657573965 C444.1597282045398,-97.30110519374227 158.77341298799547,-95.40308155524656 177.0965884195689,-34.32581147737062 C225.52436713152463,127.10016682576537 293.20224478019,202.47461046889873 344.979579252657,246.55530505197174 C464.43479137378955,348.25364034707854 552.8147631575707,354.71072677195673 585.5042381536787,449.9519756421855 C603.9582474433944,503.7179933474129 645.2318072667819,559.6969630556562 629.0892389944387,656.577189444838 C599.9649572517178,831.3676540756284 536.4408300549899,811.5461552180218 579.0471517288005,1037.5424066105306 C596.4683962702543,1129.9497256723134 603.7740474734601,1159.4739334597648 667.8314619640031,1160.4090809791974 Z" transform="matrix(1,0,0,1,0,0)" fill="#ffde9e" stroke-width="2" stroke="#000000"/>
	</g>
	<g>
		<path d="M2225.8063376486502,958.7706856308625 C2244.3304403883703,959.0411112929742 2257.850667960856,752.8072871458739 2229.0348069661627,740.845681427062 C2159.3797260133074,711.9315145096332 2133.3394306312757,721.671265735552 2015.9525806335582,711.7890141998882 C1871.0617574109574,699.5913314072845 1817.8448475474177,688.0659447745008 1731.0359144047873,652.0613711918589 C1629.1499701158177,609.8035084882373 1592.885000002224,585.7550331011264 1550.2388246168687,479.33560248757533 C1506.4848379112639,370.15173523081035 1506.6538237761085,295.3100433821438 1443.6977114505657,212.9828195718195 C1369.1476940609268,115.49433529306191 1167.768137031375,73.2161263684336 1111.1602729968292,22.50021098897298 C967.3724832111711,-106.32163211958937 1020.7617281028697,-107.79238629746715 996.547838746892,-129.2401746243089 C956.0973565464992,-165.06975025332815 681.0076709406542,-111.26278413654109 710.8239443463538,-46.91295081398448 C741.2932651875134,18.84629719469956 847.7572096831703,115.76915235346746 954.5771464598143,167.7835840723028 C1011.7222262887517,195.60955872200475 1165.2379838568213,256.5678204125797 1216.087151504375,351.80914317773426 C1292.3460136503693,494.6432393755597 1306.02846418833,509.3914759839032 1323.4353450525919,632.6902597070768 C1342.8064565373743,769.9023486542352 1164.430903474906,805.4159545164347 1191.0661078715555,973.2990192444488 C1213.9706622781055,1117.6676049980028 1462.9482533505084,1160.8680508805837 1538.9389603207949,1157.7375348127885 C1587.8640418263738,1155.722015285759 1821.532409887854,1171.723323651687 1790.7634096229644,1157.7375348127887 C1711.794449036136,1121.8428616649276 1514.6344546023122,1083.1290995041904 1486.475631909411,991.0558221755484 C1467.739647652364,929.7931943541421 1498.5750073775866,851.9615335750656 1577.6811832903593,842.5440167221685 C1645.4800734870973,834.4726217436078 1718.6738795248393,893.0930339342075 1848.0696636953962,921.6426234251281 C2036.2132562303568,963.1541948155846 2189.1354316535903,958.2353423446971 2225.8063376486502,958.7706856308625 Z" transform="matrix(1,0,0,1,0,0)" fill="#ffde9e" stroke-width="2" stroke="#000000"/>
	</g>
	<g>
		<g transform="matrix(1,0,0,1,1233.681761723,751.188297093)">
			<path d="M385.5293205091699,132.5118323954925 C438.900918929643,132.5118323954925 482.25471158519565,152.5338164994435 482.25471158519565,177.18230120451355 C482.25471158519565,201.8307859095836 438.900918929643,221.8527700135346 385.5293205091699,221.8527700135346 C332.1577220886968,221.8527700135346 288.80392943314416,201.8307859095836 288.80392943314416,177.18230120451355 C288.80392943314416,152.5338164994435 332.1577220886968,132.5118323954925 385.5293205091699,132.5118323954925 Z" transform="matrix(1,0,0,1,0,0)" fill="#ffefd4" stroke-width="2" stroke="#ffefd4"/>
		</g>
		<g transform="matrix(1,0,0,1,1233.681761723,751.188297093)">
			<path d="M385.5293205091698,171.27874808104545 C391.6241308314073,171.27874808104545 396.57495019610985,172.6017792686098 396.57495019610985,174.2305246427795 C396.57495019610985,175.8592700169492 391.6241308314073,177.18230120451355 385.5293205091698,177.18230120451355 C379.4345101869323,177.18230120451355 374.48369082222973,175.8592700169492 374.48369082222973,174.2305246427795 C374.48369082222973,172.6017792686098 379.4345101869323,171.27874808104545 385.5293205091698,171.27874808104545 Z" fill="#362407" stroke-width="2" stroke="#362407"/>
		</g>
		<g transform="matrix(1,0,0,1,1233.681761723,751.188297093)">
			<g transform="matrix(1,0,0,1,-200.221193162,64.013767265)">
				<path d="M568.7407910074094,62.47629671202188 L602.7602363351639,62.47629671202188 L602.7602363351639,82.03711817831166 L568.7407910074094,82.03711817831166 L568.7407910074094,62.47629671202188 Z" fill="#ffefd4" stroke-width="2" stroke-linecap="round" stroke-linejoin="round" stroke="#000000"/>
			</g>
			<g transform="matrix(1,0,0,1,-200.221193162,64.013767265)">
				<path d="M583.2455662321141,82.03711817831164 L588.2554611104591,82.03711817831164 L588.2554611104591,108.55732834167891 C586.5518845403398,110.23016017749939 584.8819195808913,110.23016017749939 583.2455662321141,108.55732834167891 L583.2455662321141,82.03711817831164 Z" fill="#74592e" stroke-width="2" stroke-linecap="round" stroke-linejoin="round" stroke="#000000"/>
			</g>
			<g transform="matrix(1,0,0,1,-200.221193162,64.013767265)">
				<path d="M581.8406464756749,65.31311492344842 L593.1769843640707,68.38615470484416 L591.4210056151983,74.86389981656474 L580.0846677268025,71.790860035169 L581.8406464756749,65.31311492344842 Z" transform="matrix(1,0,0,1,0,0)" fill="#969696" stroke-width="2" stroke-linecap="round" stroke-linejoin="round" stroke="#000000"/>
			</g>
			<g transform="matrix(1,0,0,1,-200.221193162,64.013767265)">
				<path d="M583.922742361191,72.83700763348062 L587.58293098081,73.8177522182531 L586.2113559182258,78.93654003821194 L582.5511672986067,77.95579545343946 L583.922742361191,72.83700763348062 Z" transform="matrix(1,0,0,1,0,0)" fill="#74592e" stroke-width="2" stroke-linecap="round" stroke-linejoin="round" stroke="#000000"/>
			</g>
		</g>
	</g>
	<g>
		<g transform="matrix(1,0,0,1,1402.271609934,412.872247499)">
			<path d="M385.5293205091699,132.5118323954925 C438.900918929643,132.5118323954925 482.25471158519565,152.5338164994435 482.25471158519565,177.18230120451355 C482.25471158519565,201.8307859095836 438.900918929643,221.8527700135346 385.5293205091699,221.8527700135346 C332.1577220886968,221.8527700135346 288.80392943314416,201.8307859095836 288.80392943314416,177.18230120451355 C288.80392943314416,152.5338164994435 332.1577220886968,132.5118323954925 385.5293205091699,132.5118323954925 Z" transform="matrix(1,0,0,1,0,0)" fill="#ffefd4" stroke-width="2" stroke="#ffefd4"/>
		</g>
		<g transform="matrix(1,0,0,1,1402.271609934,412.872247499)">
			<path d="M385.5293205091698,171.27874808104545 C391.6241308314073,171.27874808104545 396.57495019610985,172.6017792686098 396.57495019610985,174.2305246427795 C396.57495019610985,175.8592700169492 391.6241308314073,177.18230120451355 385.5293205091698,177.18230120451355 C379.4345101869323,177.18230120451355 374.48369082222973,175.8592700169492 374.48369082222973,174.2305246427795 C374.48369082222973,172.6017792686098 379.4345101869323,171.27874808104545 385.5293205091698,171.27874808104545 Z" fill="#362407" stroke-width="2" stroke="#362407"/>
		</g>
		<g transform="matrix(1,0,0,1,1402.271609934,412.872247499)">
			<g transform="matrix(1,0,0,1,-200.221193162,64.013767265)">
				<path d="M568.7407910074094,62.47629671202188 L602.7602363351639,62.47629671202188 L602.7602363351639,82.03711817831166 L568.7407910074094,82.03711817831166 L568.7407910074094,62.47629671202188 Z" fill="#ffefd4" stroke-width="2" stroke-linecap="round" stroke-linejoin="round" stroke="#000000"/>
			</g>
			<g transform="matrix(1,0,0,1,-200.221193162,64.013767265)">
				<path d="M583.2455662321141,82.03711817831164 L588.2554611104591,82.03711817831164 L588.2554611104591,108.55732834167891 C586.5518845403398,110.23016017749939 584.8819195808913,110.23016017749939 583.2455662321141,108.55732834167891 L583.2455662321141,82.03711817831164 Z" fill="#74592e" stroke-width="2" stroke-linecap="round" stroke-linejoin="round" stroke="#000000"/>
			</g>
			<g transform="matrix(1,0,0,1,-200.221193162,64.013767265)">
				<path d="M581.8406464756749,65.31311492344842 L593.1769843640707,68.38615470484416 L591.4210056151983,74.86389981656474 L580.0846677268025,71.790860035169 L581.8406464756749,65.31311492344842 Z" transform="matrix(1,0,0,1,0,0)" fill="#969696" stroke-width="2" stroke-linecap="round" stroke-linejoin="round" stroke="#000000"/>
			</g>
			<g transform="matrix(1,0,0,1,-200.221193162,64.013767265)">
				<path d="M583.922742361191,72.83700763348062 L587.58293098081,73.8177522182531 L586.2113559182258,78.93654003821194 L582.5511672986067,77.95579545343946 L583.922742361191,72.83700763348062 Z" transform="matrix(1,0,0,1,0,0)" fill="#74592e" stroke-width="2" stroke-linecap="round" stroke-linejoin="round" stroke="#000000"/>
			</g>
		</g>
	</g>
	<g>
		<g transform="matrix(1,0,0,1,1277.268253948,257.601047769)">
			<path d="M385.5293205091699,132.5118323954925 C438.900918929643,132.5118323954925 482.25471158519565,152.5338164994435 482.25471158519565,177.18230120451355 C482.25471158519565,201.8307859095836 438.900918929643,221.8527700135346 385.5293205091699,221.8527700135346 C332.1577220886968,221.8527700135346 288.80392943314416,201.8307859095836 288.80392943314416,177.18230120451355 C288.80392943314416,152.5338164994435 332.1577220886968,132.5118323954925 385.5293205091699,132.5118323954925 Z" transform="matrix(1,0,0,1,0,0)" fill="#ffefd4" stroke-width="2" stroke="#ffefd4"/>
		</g>
		<g transform="matrix(1,0,0,1,1277.268253948,257.601047769)">
			<path d="M385.5293205091698,171.27874808104545 C391.6241308314073,171.27874808104545 396.57495019610985,172.6017792686098 396.57495019610985,174.2305246427795 C396.57495019610985,175.8592700169492 391.6241308314073,177.18230120451355 385.5293205091698,177.18230120451355 C379.4345101869323,177.18230120451355 374.48369082222973,175.8592700169492 374.48369082222973,174.2305246427795 C374.48369082222973,172.6017792686098 379.4345101869323,171.27874808104545 385.5293205091698,171.27874808104545 Z" fill="#362407" stroke-width="2" stroke="#362407"/>
		</g>
		<g transform="matrix(1,0,0,1,1277.268253948,257.601047769)">
			<g transform="matrix(1,0,0,1,-200.221193162,64.013767265)">
				<path d="M568.7407910074094,62.47629671202188 L602.7602363351639,62.47629671202188 L602.7602363351639,82.03711817831166 L568.7407910074094,82.03711817831166 L568.7407910074094,62.47629671202188 Z" fill="#ffefd4" stroke-width="2" stroke-linecap="round" stroke-linejoin="round" stroke="#000000"/>
			</g>
			<g transform="matrix(1,0,0,1,-200.221193162,64.013767265)">
				<path d="M583.2455662321141,82.03711817831164 L588.2554611104591,82.03711817831164 L588.2554611104591,108.55732834167891 C586.5518845403398,110.23016017749939 584.8819195808913,110.23016017749939 583.2455662321141,108.55732834167891 L583.2455662321141,82.03711817831164 Z" fill="#74592e" stroke-width="2" stroke-linecap="round" stroke-linejoin="round" stroke="#000000"/>
			</g>
			<g transform="matrix(1,0,0,1,-200.221193162,64.013767265)">
				<path d="M581.8406464756749,65.31311492344842 L593.1769843640707,68.38615470484416 L591.4210056151983,74.86389981656474 L580.0846677268025,71.790860035169 L581.8406464756749,65.31311492344842 Z" transform="matrix(1,0,0,1,0,0)" fill="#969696" stroke-width="2" stroke-linecap="round" stroke-linejoin="round" stroke="#000000"/>
			</g>
			<g transform="matrix(1,0,0,1,-200.221193162,64.013767265)">
				<path d="M583.922742361191,72.83700763348062 L587.58293098081,73.8177522182531 L586.2113559182258,78.93654003821194 L582.5511672986067,77.95579545343946 L583.922742361191,72.83700763348062 Z" transform="matrix(1,0,0,1,0,0)" fill="#74592e" stroke-width="2" stroke-linecap="round" stroke-linejoin="round" stroke="#000000"/>
			</g>
		</g>
	</g>
	<g>
		<g transform="matrix(1,0,0,1,670.794315592,798.878564791)">
			<path d="M385.5293205091699,132.5118323954925 C438.900918929643,132.5118323954925 482.25471158519565,152.5338164994435 482.25471158519565,177.18230120451355 C482.25471158519565,201.8307859095836 438.900918929643,221.8527700135346 385.5293205091699,221.8527700135346 C332.1577220886968,221.8527700135346 288.80392943314416,201.8307859095836 288.80392943314416,177.18230120451355 C288.80392943314416,152.5338164994435 332.1577220886968,132.5118323954925 385.5293205091699,132.5118323954925 Z" transform="matrix(1,0,0,1,0,0)" fill="#ffefd4" stroke-width="2" stroke="#ffefd4"/>
		</g>
		<g transform="matrix(1,0,0,1,670.794315592,798.878564791)">
			<path d="M385.5293205091698,171.27874808104545 C391.6241308314073,171.27874808104545 396.57495019610985,172.6017792686098 396.57495019610985,174.2305246427795 C396.57495019610985,175.8592700169492 391.6241308314073,177.18230120451355 385.5293205091698,177.18230120451355 C379.4345101869323,177.18230120451355 374.48369082222973,175.8592700169492 374.48369082222973,174.2305246427795 C374.48369082222973,172.6017792686098 379.4345101869323,171.27874808104545 385.5293205091698,171.27874808104545 Z" fill="#362407" stroke-width="2" stroke="#362407"/>
		</g>
		<g transform="matrix(1,0,0,1,670.794315592,798.878564791)">
			<g transform="matrix(1,0,0,1,-200.221193162,64.013767265)">
				<path d="M568.7407910074094,62.47629671202188 L602.7602363351639,62.47629671202188 L602.7602363351639,82.03711817831166 L568.7407910074094,82.03711817831166 L568.7407910074094,62.47629671202188 Z" fill="#ffefd4" stroke-width="2" stroke-linecap="round" stroke-linejoin="round" stroke="#000000"/>
			</g>
			<g transform="matrix(1,0,0,1,-200.221193162,64.013767265)">
				<path d="M583.2455662321141,82.03711817831164 L588.2554611104591,82.03711817831164 L588.2554611104591,108.55732834167891 C586.5518845403398,110.23016017749939 584.8819195808913,110.23016017749939 583.2455662321141,108.55732834167891 L583.2455662321141,82.03711817831164 Z" fill="#74592e" stroke-width="2" stroke-linecap="round" stroke-linejoin="round" stroke="#000000"/>
			</g>
			<g transform="matrix(1,0,0,1,-200.221193162,64.013767265)">
				<path d="M581.8406464756749,65.31311492344842 L593.1769843640707,68.38615470484416 L591.4210056151983,74.86389981656474 L580.0846677268025,71.790860035169 L581.8406464756749,65.31311492344842 Z" transform="matrix(1,0,0,1,0,0)" fill="#969696" stroke-width="2" stroke-linecap="round" stroke-linejoin="round" stroke="#000000"/>
			</g>
			<g transform="matrix(1,0,0,1,-200.221193162,64.013767265)">
				<path d="M583.922742361191,72.83700763348062 L587.58293098081,73.8177522182531 L586.2113559182258,78.93654003821194 L582.5511672986067,77.95579545343946 L583.922742361191,72.83700763348062 Z" transform="matrix(1,0,0,1,0,0)" fill="#74592e" stroke-width="2" stroke-linecap="round" stroke-linejoin="round" stroke="#000000"/>
			</g>
		</g>
	</g>
	<g>
		<g transform="matrix(1,0,0,1,53.550328909,792.856796373)">
			<path d="M385.5293205091699,132.5118323954925 C438.900918929643,132.5118323954925 482.25471158519565,152.5338164994435 482.25471158519565,177.18230120451355 C482.25471158519565,201.8307859095836 438.900918929643,221.8527700135346 385.5293205091699,221.8527700135346 C332.1577220886968,221.8527700135346 288.80392943314416,201.8307859095836 288.80392943314416,177.18230120451355 C288.80392943314416,152.5338164994435 332.1577220886968,132.5118323954925 385.5293205091699,132.5118323954925 Z" transform="matrix(1,0,0,1,0,0)" fill="#ffefd4" stroke-width="2" stroke="#ffefd4"/>
		</g>
		<g transform="matrix(1,0,0,1,53.550328909,792.856796373)">
			<path d="M385.5293205091698,171.27874808104545 C391.6241308314073,171.27874808104545 396.57495019610985,172.6017792686098 396.57495019610985,174.2305246427795 C396.57495019610985,175.8592700169492 391.6241308314073,177.18230120451355 385.5293205091698,177.18230120451355 C379.4345101869323,177.18230120451355 374.48369082222973,175.8592700169492 374.48369082222973,174.2305246427795 C374.48369082222973,172.6017792686098 379.4345101869323,171.27874808104545 385.5293205091698,171.27874808104545 Z" fill="#362407" stroke-width="2" stroke="#362407"/>
		</g>
		<g transform="matrix(1,0,0,1,53.550328909,792.856796373)">
			<g transform="matrix(1,0,0,1,-200.221193162,64.013767265)">
				<path d="M568.7407910074094,62.47629671202188 L602.7602363351639,62.47629671202188 L602.7602363351639,82.03711817831166 L568.7407910074094,82.03711817831166 L568.7407910074094,62.47629671202188 Z" fill="#ffefd4" stroke-width="2" stroke-linecap="round" stroke-linejoin="round" stroke="#000000"/>
			</g>
			<g transform="matrix(1,0,0,1,-200.221193162,64.013767265)">
				<path d="M583.2455662321141,82.03711817831164 L588.2554611104591,82.03711817831164 L588.2554611104591,108.55732834167891 C586.5518845403398,110.23016017749939 584.8819195808913,110.23016017749939 583.2455662321141,108.55732834167891 L583.2455662321141,82.03711817831164 Z" fill="#74592e" stroke-width="2" stroke-linecap="round" stroke-linejoin="round" stroke="#000000"/>
			</g>
			<g transform="matrix(1,0,0,1,-200.221193162,64.013767265)">
				<path d="M581.8406464756749,65.31311492344842 L593.1769843640707,68.38615470484416 L591.4210056151983,74.86389981656474 L580.0846677268025,71.790860035169 L581.8406464756749,65.31311492344842 Z" transform="matrix(1,0,0,1,0,0)" fill="#969696" stroke-width="2" stroke-linecap="round" stroke-linejoin="round" stroke="#000000"/>
			</g>
			<g transform="matrix(1,0,0,1,-200.221193162,64.013767265)">
				<path d="M583.922742361191,72.83700763348062 L587.58293098081,73.8177522182531 L586.2113559182258,78.93654003821194 L582.5511672986067,77.95579545343946 L583.922742361191,72.83700763348062 Z" transform="matrix(1,0,0,1,0,0)" fill="#74592e" stroke-width="2" stroke-linecap="round" stroke-linejoin="round" stroke="#000000"/>
			</g>
		</g>
	</g>
	<g>
		<g transform="matrix(1,0,0,1,129.760585303,433.54347322)">
			<path d="M385.5293205091699,132.5118323954925 C438.900918929643,132.5118323954925 482.25471158519565,152.5338164994435 482.25471158519565,177.18230120451355 C482.25471158519565,201.8307859095836 438.900918929643,221.8527700135346 385.5293205091699,221.8527700135346 C332.1577220886968,221.8527700135346 288.80392943314416,201.8307859095836 288.80392943314416,177.18230120451355 C288.80392943314416,152.5338164994435 332.1577220886968,132.5118323954925 385.5293205091699,132.5118323954925 Z" transform="matrix(1,0,0,1,0,0)" fill="#ffefd4" stroke-width="2" stroke="#ffefd4"/>
		</g>
		<g transform="matrix(1,0,0,1,129.760585303,433.54347322)">
			<path d="M385.5293205091698,171.27874808104545 C391.6241308314073,171.27874808104545 396.57495019610985,172.6017792686098 396.57495019610985,174.2305246427795 C396.57495019610985,175.8592700169492 391.6241308314073,177.18230120451355 385.5293205091698,177.18230120451355 C379.4345101869323,177.18230120451355 374.48369082222973,175.8592700169492 374.48369082222973,174.2305246427795 C374.48369082222973,172.6017792686098 379.4345101869323,171.27874808104545 385.5293205091698,171.27874808104545 Z" fill="#362407" stroke-width="2" stroke="#362407"/>
		</g>
		<g transform="matrix(1,0,0,1,129.760585303,433.54347322)">
			<g transform="matrix(1,0,0,1,-200.221193162,64.013767265)">
				<path d="M568.7407910074094,62.47629671202188 L602.7602363351639,62.47629671202188 L602.7602363351639,82.03711817831166 L568.7407910074094,82.03711817831166 L568.7407910074094,62.47629671202188 Z" fill="#ffefd4" stroke-width="2" stroke-linecap="round" stroke-linejoin="round" stroke="#000000"/>
			</g>
			<g transform="matrix(1,0,0,1,-200.221193162,64.013767265)">
				<path d="M583.2455662321141,82.03711817831164 L588.2554611104591,82.03711817831164 L588.2554611104591,108.55732834167891 C586.5518845403398,110.23016017749939 584.8819195808913,110.23016017749939 583.2455662321141,108.55732834167891 L583.2455662321141,82.03711817831164 Z" fill="#74592e" stroke-width="2" stroke-linecap="round" stroke-linejoin="round" stroke="#000000"/>
			</g>
			<g transform="matrix(1,0,0,1,-200.221193162,64.013767265)">
				<path d="M581.8406464756749,65.31311492344842 L593.1769843640707,68.38615470484416 L591.4210056151983,74.86389981656474 L580.0846677268025,71.790860035169 L581.8406464756749,65.31311492344842 Z" transform="matrix(1,0,0,1,0,0)" fill="#969696" stroke-width="2" stroke-linecap="round" stroke-linejoin="round" stroke="#000000"/>
			</g>
			<g transform="matrix(1,0,0,1,-200.221193162,64.013767265)">
				<path d="M583.922742361191,72.83700763348062 L587.58293098081,73.8177522182531 L586.2113559182258,78.93654003821194 L582.5511672986067,77.95579545343946 L583.922742361191,72.83700763348062 Z" transform="matrix(1,0,0,1,0,0)" fill="#74592e" stroke-width="2" stroke-linecap="round" stroke-linejoin="round" stroke="#000000"/>
			</g>
		</g>
	</g>
	<g>
		<g transform="matrix(1,0,0,1,70.560051572,274.735745895)">
			<path d="M385.5293205091699,132.5118323954925 C438.900918929643,132.5118323954925 482.25471158519565,152.5338164994435 482.25471158519565,177.18230120451355 C482.25471158519565,201.8307859095836 438.900918929643,221.8527700135346 385.5293205091699,221.8527700135346 C332.1577220886968,221.8527700135346 288.80392943314416,201.8307859095836 288.80392943314416,177.18230120451355 C288.80392943314416,152.5338164994435 332.1577220886968,132.5118323954925 385.5293205091699,132.5118323954925 Z" transform="matrix(1,0,0,1,0,0)" fill="#ffefd4" stroke-width="2" stroke="#ffefd4"/>
		</g>
		<g transform="matrix(1,0,0,1,70.560051572,274.735745895)">
			<path d="M385.5293205091698,171.27874808104545 C391.6241308314073,171.27874808104545 396.57495019610985,172.6017792686098 396.57495019610985,174.2305246427795 C396.57495019610985,175.8592700169492 391.6241308314073,177.18230120451355 385.5293205091698,177.18230120451355 C379.4345101869323,177.18230120451355 374.48369082222973,175.8592700169492 374.48369082222973,174.2305246427795 C374.48369082222973,172.6017792686098 379.4345101869323,171.27874808104545 385.5293205091698,171.27874808104545 Z" fill="#362407" stroke-width="2" stroke="#362407"/>
		</g>
		<g transform="matrix(1,0,0,1,70.560051572,274.735745895)">
			<g transform="matrix(1,0,0,1,-200.221193162,64.013767265)">
				<path d="M568.7407910074094,62.47629671202188 L602.7602363351639,62.47629671202188 L602.7602363351639,82.03711817831166 L568.7407910074094,82.03711817831166 L568.7407910074094,62.47629671202188 Z" fill="#ffefd4" stroke-width="2" stroke-linecap="round" stroke-linejoin="round" stroke="#000000"/>
			</g>
			<g transform="matrix(1,0,0,1,-200.221193162,64.013767265)">
				<path d="M583.2455662321141,82.03711817831164 L588.2554611104591,82.03711817831164 L588.2554611104591,108.55732834167891 C586.5518845403398,110.23016017749939 584.8819195808913,110.23016017749939 583.2455662321141,108.55732834167891 L583.2455662321141,82.03711817831164 Z" fill="#74592e" stroke-width="2" stroke-linecap="round" stroke-linejoin="round" stroke="#000000"/>
			</g>
			<g transform="matrix(1,0,0,1,-200.221193162,64.013767265)">
				<path d="M581.8406464756749,65.31311492344842 L593.1769843640707,68.38615470484416 L591.4210056151983,74.86389981656474 L580.0846677268025,71.790860035169 L581.8406464756749,65.31311492344842 Z" transform="matrix(1,0,0,1,0,0)" fill="#969696" stroke-width="2" stroke-linecap="round" stroke-linejoin="round" stroke="#000000"/>
			</g>
			<g transform="matrix(1,0,0,1,-200.221193162,64.013767265)">
				<path d="M583.922742361191,72.83700763348062 L587.58293098081,73.8177522182531 L586.2113559182258,78.93654003821194 L582.5511672986067,77.95579545343946 L583.922742361191,72.83700763348062 Z" transform="matrix(1,0,0,1,0,0)" fill="#74592e" stroke-width="2" stroke-linecap="round" stroke-linejoin="round" stroke="#000000"/>
			</g>
		</g>
	</g>
	<g>
		<g transform="matrix(1,0,0,1,630.624458278,604.339385419)">
			<path d="M385.5293205091699,132.5118323954925 C438.900918929643,132.5118323954925 482.25471158519565,152.5338164994435 482.25471158519565,177.18230120451355 C482.25471158519565,201.8307859095836 438.900918929643,221.8527700135346 385.5293205091699,221.8527700135346 C332.1577220886968,221.8527700135346 288.80392943314416,201.8307859095836 288.80392943314416,177.18230120451355 C288.80392943314416,152.5338164994435 332.1577220886968,132.5118323954925 385.5293205091699,132.5118323954925 Z" transform="matrix(1,0,0,1,0,0)" fill="#ffefd4" stroke-width="2" stroke="#ffefd4"/>
		</g>
		<g transform="matrix(1,0,0,1,630.624458278,604.339385419)">
			<path d="M385.5293205091698,171.27874808104545 C391.6241308314073,171.27874808104545 396.57495019610985,172.6017792686098 396.57495019610985,174.2305246427795 C396.57495019610985,175.8592700169492 391.6241308314073,177.18230120451355 385.5293205091698,177.18230120451355 C379.4345101869323,177.18230120451355 374.48369082222973,175.8592700169492 374.48369082222973,174.2305246427795 C374.48369082222973,172.6017792686098 379.4345101869323,171.27874808104545 385.5293205091698,171.27874808104545 Z" fill="#362407" stroke-width="2" stroke="#362407"/>
		</g>
		<g transform="matrix(1,0,0,1,630.624458278,604.339385419)">
			<g transform="matrix(1,0,0,1,-200.221193162,64.013767265)">
				<path d="M568.7407910074094,62.47629671202188 L602.7602363351639,62.47629671202188 L602.7602363351639,82.03711817831166 L568.7407910074094,82.03711817831166 L568.7407910074094,62.47629671202188 Z" fill="#ffefd4" stroke-width="2" stroke-linecap="round" stroke-linejoin="round" stroke="#000000"/>
			</g>
			<g transform="matrix(1,0,0,1,-200.221193162,64.013767265)">
				<path d="M583.2455662321141,82.03711817831164 L588.2554611104591,82.03711817831164 L588.2554611104591,108.55732834167891 C586.5518845403398,110.23016017749939 584.8819195808913,110.23016017749939 583.2455662321141,108.55732834167891 L583.2455662321141,82.03711817831164 Z" fill="#74592e" stroke-width="2" stroke-linecap="round" stroke-linejoin="round" stroke="#000000"/>
			</g>
			<g transform="matrix(1,0,0,1,-200.221193162,64.013767265)">
				<path d="M581.8406464756749,65.31311492344842 L593.1769843640707,68.38615470484416 L591.4210056151983,74.86389981656474 L580.0846677268025,71.790860035169 L581.8406464756749,65.31311492344842 Z" transform="matrix(1,0,0,1,0,0)" fill="#969696" stroke-width="2" stroke-linecap="round" stroke-linejoin="round" stroke="#000000"/>
			</g>
			<g transform="matrix(1,0,0,1,-200.221193162,64.013767265)">
				<path d="M583.922742361191,72.83700763348062 L587.58293098081,73.8177522182531 L586.2113559182258,78.93654003821194 L582.5511672986067,77.95579545343946 L583.922742361191,72.83700763348062 Z" transform="matrix(1,0,0,1,0,0)" fill="#74592e" stroke-width="2" stroke-linecap="round" stroke-linejoin="round" stroke="#000000"/>
			</g>
		</g>
	</g>
	<g>
		<g transform="matrix(1,0,0,1,824.07524043,477.143814707)">
			<path d="M385.5293205091699,132.5118323954925 C438.900918929643,132.5118323954925 482.25471158519565,152.5338164994435 482.25471158519565,177.18230120451355 C482.25471158519565,201.8307859095836 438.900918929643,221.8527700135346 385.5293205091699,221.8527700135346 C332.1577220886968,221.8527700135346 288.80392943314416,201.8307859095836 288.80392943314416,177.18230120451355 C288.80392943314416,152.5338164994435 332.1577220886968,132.5118323954925 385.5293205091699,132.5118323954925 Z" transform="matrix(1,0,0,1,0,0)" fill="#ffefd4" stroke-width="2" stroke="#ffefd4"/>
		</g>
		<g transform="matrix(1,0,0,1,824.07524043,477.143814707)">
			<path d="M385.5293205091698,171.27874808104545 C391.6241308314073,171.27874808104545 396.57495019610985,172.6017792686098 396.57495019610985,174.2305246427795 C396.57495019610985,175.8592700169492 391.6241308314073,177.18230120451355 385.5293205091698,177.18230120451355 C379.4345101869323,177.18230120451355 374.48369082222973,175.8592700169492 374.48369082222973,174.2305246427795 C374.48369082222973,172.6017792686098 379.4345101869323,171.27874808104545 385.5293205091698,171.27874808104545 Z" fill="#362407" stroke-width="2" stroke="#362407"/>
		</g>
		<g transform="matrix(1,0,0,1,824.07524043,477.143814707)">
			<g transform="matrix(1,0,0,1,-200.221193162,64.013767265)">
				<path d="M568.7407910074094,62.47629671202188 L602.7602363351639,62.47629671202188 L602.7602363351639,82.03711817831166 L568.7407910074094,82.03711817831166 L568.7407910074094,62.47629671202188 Z" fill="#ffefd4" stroke-width="2" stroke-linecap="round" stroke-linejoin="round" stroke="#000000"/>
			</g>
			<g transform="matrix(1,0,0,1,-200.221193162,64.013767265)">
				<path d="M583.2455662321141,82.03711817831164 L588.2554611104591,82.03711817831164 L588.2554611104591,108.55732834167891 C586.5518845403398,110.23016017749939 584.8819195808913,110.23016017749939 583.2455662321141,108.55732834167891 L583.2455662321141,82.03711817831164 Z" fill="#74592e" stroke-width="2" stroke-linecap="round" stroke-linejoin="round" stroke="#000000"/>
			</g>
			<g transform="matrix(1,0,0,1,-200.221193162,64.013767265)">
				<path d="M581.8406464756749,65.31311492344842 L593.1769843640707,68.38615470484416 L591.4210056151983,74.86389981656474 L580.0846677268025,71.790860035169 L581.8406464756749,65.31311492344842 Z" transform="matrix(1,0,0,1,0,0)" fill="#969696" stroke-width="2" stroke-linecap="round" stroke-linejoin="round" stroke="#000000"/>
			</g>
			<g transform="matrix(1,0,0,1,-200.221193162,64.013767265)">
				<path d="M583.922742361191,72.83700763348062 L587.58293098081,73.8177522182531 L586.2113559182258,78.93654003821194 L582.5511672986067,77.95579545343946 L583.922742361191,72.83700763348062 Z" transform="matrix(1,0,0,1,0,0)" fill="#74592e" stroke-width="2" stroke-linecap="round" stroke-linejoin="round" stroke="#000000"/>
			</g>
		</g>
	</g>
	<g>
		<path d="M685.9259969422078,200.2767584061148 C691.6777100726415,208.17742284050416 685.8456352223106,207.08339181599803 673.4875517565777,207.8281050784364 C661.2844242302409,208.5634805059684 656.8843273272547,208.9445925313136 663.0910974262772,200.27675840611477 C668.4983851126971,192.7254117337933 684.531653364552,198.36146109147387 685.9259969422078,200.2767584061148 Z" transform="matrix(1,0,0,1,0,0)" fill="#74592e" stroke-width="2" stroke="#000000"/>
	</g>
	<g>
		<path d="M342.9300520503955,37.519821027871004 C348.68176518082925,45.420485462260395 342.84969033049833,44.326454437754265 330.49160686476534,45.07116770019262 C318.28847933842854,45.80654312772462 313.8883824354424,46.18765515306982 320.0951525344649,37.519821027871 C325.5024402208848,29.968474355549496 341.5357084727397,35.604523713230094 342.9300520503955,37.519821027871004 Z" fill="#74592e" stroke-width="2" stroke="#000000"/>
	</g>
	<g>
		<path d="M567.806881660587,345.74069360161434 C571.6196308786859,345.7355511836858 574.8288964471158,347.95004115767586 574.0871711508404,350.36337539586805 C573.8737037044557,351.057929430477 572.3934461285185,352.42022356204046 568.5502743083806,352.42022356204046 C564.7071024882426,352.42022356204046 561.2860767124414,352.42022356204046 561.2860767124414,349.70642375363207 C561.2860767124414,347.1797976344518 563.5426171034832,345.74644499759034 567.806881660587,345.74069360161434 Z" fill="none" stroke-width="2" stroke="#000000"/>
	</g>
	<g>
		<path d="M674.0738432088224,632.3742799651405 C675.5963769412207,632.3742799651405 677.1303024857335,633.8271755758919 677.1303024857335,634.8500289448925 C677.1303024857335,635.8728823138931 675.5963769412207,636.0817159445008 674.0738432088224,636.0817159445008 C672.5513094764241,636.0817159445008 671.3145540915569,635.9196071817621 671.3145540915569,634.8967538127615 C671.3145540915569,633.8739004437609 672.5513094764241,632.3742799651405 674.0738432088224,632.3742799651405 Z" fill="none" stroke-width="2" stroke="#000000"/>
	</g>
	<g>
		<path d="M315.62082193677503,33.69618529036801 C326.1970070056325,33.69618529036801 335.66110176967317,37.423896225186525 335.32615405367216,43.22313252704632 C334.8924196157968,50.732747841114836 326.4058232288427,49.148196397078856 315.8296381599852,49.148196397078856 C305.25345309112777,49.148196397078856 296.60087485759567,49.98927081105009 300.01397154998494,43.28604631113271 C303.0464005325703,37.330442329665686 305.04463686791763,33.69618529036801 315.62082193677503,33.69618529036801 Z" fill="#74592e" stroke-width="2" stroke="#000000"/>
	</g>
	<g>
		<path d="M549.5707633594996,327.84002022866184 C555.3224764899333,335.7406846630512 549.4904016396024,334.64665363854505 537.1323181738694,335.3913669009834 C524.9291906475327,336.12674232851543 520.5290937445466,336.50785435386064 526.735863843569,327.84002022866184 C532.1431515299889,320.28867355634037 548.1764197818437,325.92472291402095 549.5707633594996,327.84002022866184 Z" transform="matrix(1,0,0,1,0,0)" fill="#74592e" stroke-width="2" stroke="#000000"/>
	</g>
	<g>
		<path d="M328.9471132457187,96.3810330273728 C332.75986246381757,96.37589060944427 335.96912803224745,98.59038058343428 335.227402735972,101.0037148216265 C335.0139352895873,101.6982688562354 333.5336777136502,103.0605629877989 329.69050589351224,103.0605629877989 C325.8473340733743,103.0605629877989 322.42630829757314,103.06056298779889 322.42630829757314,100.3467631793905 C322.42630829757314,97.82013706021024 324.6828486886149,96.38678442334877 328.9471132457187,96.3810330273728 Z" fill="none" stroke-width="2" stroke="#000000"/>
	</g>
	<g>
		<path d="M317.14793150782316,119.74632835310148 C318.6704652402215,119.74632835310148 320.20439078473436,121.19922396385284 320.20439078473436,122.22207733285344 C320.20439078473436,123.24493070185405 318.6704652402215,123.45376433246169 317.14793150782316,123.45376433246169 C315.6253977754248,123.45376433246169 314.3886423905578,123.29165556972299 314.3886423905578,122.26880220072239 C314.3886423905578,121.24594883172179 315.6253977754248,119.74632835310148 317.14793150782316,119.74632835310148 Z" fill="none" stroke-width="2" stroke="#000000"/>
	</g>
	<g>
		<path d="M1138.4011238738633,223.27186747208768 C1127.8249388050058,223.27186747208768 1118.360844040965,226.9995784069062 1118.6957917569662,232.798814708766 C1119.1295261948414,240.30843002283453 1127.6161225817957,238.72387857879855 1138.192307650653,238.72387857879855 C1148.7684927195105,238.72387857879855 1157.4210709530428,239.56495299276978 1154.0079742606533,232.8617284928524 C1150.975545278068,226.90612451138537 1148.9773089427206,223.27186747208768 1138.4011238738633,223.27186747208768 Z" transform="matrix(1,0,0,1,0,0)" fill="#74592e" stroke-width="2" stroke="#000000"/>
	</g>
	<g>
		<path d="M1091.4463102064512,22.50021098897289 C1102.0224952753088,22.50021098897289 1111.4865900393495,26.227921923791406 1111.1516423233484,32.02715822565119 C1110.717907885473,39.536773539719704 1102.2313114985188,37.95222209568372 1091.6551264296615,37.95222209568372 C1081.078941360804,37.95222209568372 1072.426363127272,38.79329650965496 1075.8394598196612,32.09007200973758 C1078.8718888022465,26.134468028270568 1080.870125137594,22.50021098897289 1091.4463102064512,22.50021098897289 Z" transform="matrix(1,0,0,1,0,0)" fill="#74592e" stroke-width="2" stroke="#000000"/>
	</g>
	<g>
		<path d="M1086.78730537138,36.05326125899353 C1092.5390185018136,43.9539256933829 1086.7069436514828,42.85989466887677 1074.3488601857498,43.60460793131513 C1062.1457326594132,44.339983358847135 1057.745635756427,44.721095384192324 1063.9524058554493,36.05326125899353 C1069.3596935418693,28.50191458667205 1085.392961793724,34.137963944352634 1086.78730537138,36.05326125899353 Z" transform="matrix(1,0,0,1,0,0)" fill="#74592e" stroke-width="2" stroke="#000000"/>
	</g>
	<g>
		<path d="M1177.4404491783353,238.86344102911468 C1181.2531983964343,238.85829861118617 1184.4624639648641,241.0727885851762 1183.7207386685886,243.48612282336842 C1183.507271222204,244.18067685797732 1182.0270136462668,245.5429709895408 1178.1838418261289,245.5429709895408 C1174.3406700059911,245.5429709895408 1170.9196442301898,245.5429709895408 1170.9196442301898,242.8291711811324 C1170.9196442301898,240.30254506195215 1173.1761846212316,238.8691924250907 1177.4404491783353,238.86344102911468 Z" fill="none" stroke-width="2" stroke="#000000"/>
	</g>
	<g>
		<path d="M849.2560409555382,796.6098342469414 C850.7785746879365,796.6098342469414 852.3125002324493,798.0627298576928 852.3125002324493,799.0855832266934 C852.3125002324493,800.108436595694 850.7785746879365,800.3172702263017 849.2560409555382,800.3172702263017 C847.7335072231399,800.3172702263017 846.4967518382728,800.155161463563 846.4967518382728,799.1323080945624 C846.4967518382728,798.1094547255618 847.7335072231399,796.6098342469414 849.2560409555382,796.6098342469414 Z" transform="matrix(1,0,0,1,0,0)" fill="none" stroke-width="2" stroke="#000000"/>
	</g>
	<g>
		<path d="M1351.2358111570784,537.9614856515568 C1356.987524287512,545.8621500859462 1351.1554494371812,544.7681190614401 1338.7973659714482,545.5128323238785 C1326.5942384451116,546.2482077514104 1322.1941415421254,546.6293197767557 1328.4009116411478,537.9614856515568 C1333.8081993275678,530.4101389792354 1349.8414675794224,536.046188336916 1351.2358111570784,537.9614856515568 Z" fill="#74592e" stroke-width="2" stroke="#000000"/>
	</g>
	<g>
		<path d="M1111.2268397301832,69.07514784504372 C1115.0395889482822,69.07000542711519 1118.248854516712,71.28449540110522 1117.5071292204366,73.69782963929745 C1117.293661774052,74.39238367390635 1115.8134041981148,75.75467780546985 1111.9702323779768,75.75467780546985 C1108.127060557839,75.75467780546985 1104.7060347820377,75.75467780546984 1104.7060347820377,73.04087799706146 C1104.7060347820377,70.51425187788118 1106.9625751730796,69.08089924101971 1111.2268397301832,69.07514784504372 Z" transform="matrix(1,0,0,1,0,0)" fill="none" stroke-width="2" stroke="#000000"/>
	</g>
	<g>
		<path d="M852.0366085223142,778.5108024139425 C854.863638232635,778.5108024139425 857.7118201779554,781.2085285596345 857.7118201779554,783.1077553563449 C857.7118201779554,785.0069821530554 854.863638232635,785.3947429400115 852.0366085223142,785.3947429400115 C849.2095788119933,785.3947429400115 846.9131802869432,785.0937405524692 846.9131802869432,783.1945137557587 C846.9131802869432,781.2952869590482 849.2095788119933,778.5108024139425 852.0366085223142,778.5108024139425 Z" transform="matrix(1,0,0,1,0,0)" fill="none" stroke-width="2" stroke="#000000"/>
	</g>
	<g>
		<path d="M1587.455303084852,816.422788010191 C1588.9778368172504,816.422788010191 1590.5117623617632,817.8756836209424 1590.5117623617632,818.898536989943 C1590.5117623617632,819.9213903589435 1588.9778368172504,820.1302239895513 1587.455303084852,820.1302239895513 C1585.9327693524535,820.1302239895513 1584.6960139675866,819.9681152268125 1584.6960139675866,818.9452618578119 C1584.6960139675866,817.9224084888114 1585.9327693524535,816.422788010191 1587.455303084852,816.422788010191 Z" transform="matrix(1,0,0,1,0,0)" fill="none" stroke-width="2" stroke="#000000"/>
	</g>
	<g>
		<path d="M671.9960301330223,615.6069495313366 C677.747743263456,623.5076139657259 671.9156684131251,622.4135829412198 659.5575849473921,623.1582962036582 C647.3544574210554,623.8936716311902 642.9543605180693,624.2747836565354 649.1611306170917,615.6069495313366 C654.5684183035116,608.0556028590152 670.6016865553664,613.6916522166957 671.9960301330223,615.6069495313366 Z" transform="matrix(1,0,0,1,0,0)" fill="#74592e" stroke-width="2" stroke="#000000"/>
	</g>
	<g>
		<path d="M1339.5988092368714,564.827967210371 C1343.4115584549704,564.8228247924425 1346.6208240234002,567.0373147664325 1345.8790987271248,569.4506490046247 C1345.6656312807402,570.1452030392336 1344.185373704803,571.5074971707971 1340.342201884665,571.5074971707971 C1336.4990300645272,571.5074971707971 1333.0780042887259,571.507497170797 1333.0780042887259,568.7936973623887 C1333.0780042887259,566.2670712432084 1335.3345446797678,564.8337186063469 1339.5988092368714,564.827967210371 Z" fill="none" stroke-width="2" stroke="#000000"/>
	</g>
	<g>
		<path d="M1275.520802311945,799.8721757311923 C1278.347832022266,799.8721757311923 1281.1960139675862,802.5699018768843 1281.1960139675862,804.4691286735947 C1281.1960139675862,806.3683554703052 1278.347832022266,806.7561162572613 1275.520802311945,806.7561162572613 C1272.6937726016242,806.7561162572613 1270.3973740765741,806.455113869719 1270.3973740765741,804.5558870730085 C1270.3973740765741,802.656660276298 1272.6937726016242,799.8721757311923 1275.520802311945,799.8721757311923 Z" transform="matrix(1,0,0,1,0,0)" fill="none" stroke-width="2" stroke="#000000"/>
	</g>
</g></g></svg>